<svg width="82" height="60" viewBox="0 0 82 60" fill="none" xmlns="http://www.w3.org/2000/svg">
<circle cx="40.7072" cy="30" r="29.5" stroke="#B75742"/>
<path d="M28.2112 34.98C30.1072 34.98 31.3792 33.648 31.3792 31.668C31.3792 29.688 30.1072 28.356 28.2112 28.356L26.9512 28.368V34.968L28.2112 34.98ZM28.2232 27.24C30.8152 27.24 32.6392 29.064 32.6392 31.668C32.6392 34.272 30.8152 36.096 28.2232 36.096H25.6792V27.24H28.2232ZM36.7089 31.656C37.6809 31.656 38.3409 31.02 38.3409 30C38.3409 28.98 37.6809 28.356 36.7089 28.356H34.7769V31.656H36.7089ZM40.0329 36.096H38.4969L36.2529 32.772H34.7769V36.096H33.5049V27.24H36.8649C38.4849 27.24 39.6129 28.344 39.6129 29.976C39.6249 31.128 39.0009 32.112 37.6689 32.592L40.0329 36.096ZM45.6937 27.24L48.9817 36.096H47.6257L46.7377 33.684H43.1017L42.1777 36.096H40.8217L44.1697 27.24H45.6937ZM43.5097 32.58H46.3177L44.9377 28.848L43.5097 32.58ZM57.2655 31.452L57.2535 32.22C57.2535 34.704 55.5615 36.156 53.1015 36.192C50.5215 36.192 48.6975 34.32 48.6975 31.668C48.6975 29.016 50.5215 27.156 53.1015 27.156C55.8735 27.156 56.8455 29.292 56.8455 29.292L55.7535 29.856C55.7535 29.856 55.0575 28.272 53.1015 28.272C51.2295 28.272 49.9695 29.64 49.9695 31.668C49.9695 33.708 51.2295 35.076 53.1015 35.076C54.7095 35.028 55.9935 34.248 56.0055 32.508H53.2455V31.452H57.2655Z" fill="#B75742"/>
<path d="M4.70715 28L0.707153 32L4.70715 36" stroke="#B75742" stroke-linecap="round"/>
<path d="M76.7072 28L80.7072 32L76.7072 36" stroke="#B75742" stroke-linecap="round"/>
</svg>
