<?xml version="1.0" encoding="UTF-8"?>
<svg id="Layer_1" data-name="Layer 1" xmlns="http://www.w3.org/2000/svg" viewBox="0 0 600 200">
  <defs>
    <style>
      .cls-1 {
        letter-spacing: -.02em;
      }

      .cls-2 {
        letter-spacing: -.03em;
      }

      .cls-3 {
        letter-spacing: -.01em;
      }

      .cls-4 {
        font-family: SUITEVariable-Medium, 'SUITE Variable';
        font-size: 31.03px;
        font-variation-settings: 'wght' 500;
        font-weight: 500;
      }

      .cls-4, .cls-5 {
        fill: #fff;
      }

      .cls-6 {
        letter-spacing: -.15em;
      }

      .cls-7 {
        letter-spacing: .02em;
      }

      .cls-8 {
        letter-spacing: 0em;
      }

      .cls-9 {
        letter-spacing: -.02em;
      }

      .cls-10 {
        letter-spacing: -.04em;
      }

      .cls-11 {
        letter-spacing: 0em;
      }

      .cls-12 {
        letter-spacing: 0em;
      }

      .cls-13 {
        letter-spacing: -.04em;
      }

      .cls-14 {
        letter-spacing: .02em;
      }

      .cls-15 {
        letter-spacing: .01em;
      }

      .cls-16 {
        letter-spacing: 0em;
      }

      .cls-17 {
        letter-spacing: .01em;
      }
    </style>
  </defs>
  <g>
    <path class="cls-5" d="M400.35,25l-5.65,2.43c-7.6,4.11-13.26,10.23-19.09,16.42-10.77.77-22.39-.76-33.06.09-3.29.26-9.14,1.5-10.62,4.77-2.32,5.14,4.2,7.01,7.96,8.13,15,4.47,39.84,5.26,37.91,27.09-1.71,19.48-22.46,28.28-39.61,29.44l-58.19.39,7.37-3.48c7.2-3.96,12.64-9.9,17.76-16.17,10.83-.68,22.32.66,33.07-.08,3.98-.27,11.22-1.54,13.17-5.37,3.12-6.12-4.1-8.09-8.63-9.42-15.23-4.46-39.17-5.2-37.48-27.22,1.51-19.66,22.49-26.71,39.23-27.45,18.57-.82,37.27,1.14,55.85.42Z"/>
    <path class="cls-5" d="M314.34,25l-.59,1.18-16.26,17.28c-10.36.66-21.57-.94-31.77.98-14.98,2.82-20.26,21.88-19.24,35.2,1.13,14.8,15.35,18.09,27.1,12.11,2.74-1.39,8.69-6.46,9.59-9.35.17-.55-.04-.7-.58-.59l-15.59-.4,5.56-18.5,30.74.16c1.85,2.17,2.15,3.49,1.99,6.33-1.34,23.5-16.67,40.99-40.11,43.99-13.58,1.74-33.05-1.4-39.82-14.93-2.32-4.63-.56-5.68-.19-10.14.37-4.47-.09-9.26-1.46-13.52-.62-1.93-2.29-4.43-2.69-5.99-.59-2.3,1.24-9.26,1.98-11.85,5.32-18.39,18.51-29.33,37.53-31.52,17.88-.98,35.89-.19,53.81-.44Z"/>
    <path class="cls-5" d="M376.61,113.77c5.08-36.21,33.88-67.62,71.02-71.02.65-.48,0-.71-.58-.79-3.72-.47-10.33-.06-14.1.5-15.47,2.3-30.63,13.73-40.54,25.35l-10.27,13.99c-.07-18.77,1.68-42.73,20.56-52.23,6.13-3.08,14.21-4.64,21.05-5,14.55-.77,29.78.61,44.4.02-2.49,15.58-9.99,34.34-25.26,41.22-7.39,3.33-15.45,3.96-23.45,4.57-5.74.43-12.43-.78-17.18,3.53h45.77l-2.82,16.52-36.58.5-4.4,22.83h-27.62Z"/>
    <path class="cls-5" d="M221.5,45.2c2.87-12.53-6.01-19.12-17.45-20.2l-59.8.16-15.75,88.6,52.69.02c16.54-.79,37-6.09,39.93-25.18,2.13-13.94-4.9-22.51-18.64-24.15-.39-.05-5.08.3-3.74-.79,9.58-1.46,20.49-8.52,22.77-18.47ZM194.01,87.55c-2.61,6.34-14.26,6.82-20.14,6.89l16.96-14.8c3.56,1.33,4.61,4.43,3.17,7.91ZM171.55,67.56h21.22l-41.08,34.18,13.88-27.82h-15.64l19.69-31.17h26.74l-24.81,24.81Z"/>
  </g>
  <g>
    <rect class="cls-5" x="74.5" y="109.49" width="35.3" height="4.77"/>
    <rect class="cls-5" x="60.38" y="96.76" width="49.42" height="4.77"/>
    <rect class="cls-5" x="46.26" y="84.03" width="63.54" height="4.77"/>
    <rect class="cls-5" x="32.14" y="71.3" width="77.66" height="4.77"/>
  </g>
  <g>
    <rect class="cls-5" x="486.85" y="109.49" width="35.3" height="4.77"/>
    <rect class="cls-5" x="486.85" y="96.76" width="49.42" height="4.77"/>
    <rect class="cls-5" x="486.85" y="84.03" width="63.54" height="4.77"/>
    <rect class="cls-5" x="486.85" y="71.3" width="77.66" height="4.77"/>
  </g>
  <text class="cls-4" transform="translate(48.19 168.9)"><tspan class="cls-12" x="0" y="0">B</tspan><tspan class="cls-1" x="19.73" y="0">U</tspan><tspan class="cls-10" x="41.26" y="0">S</tspan><tspan class="cls-16" x="59.91" y="0">A</tspan><tspan class="cls-12" x="84.08" y="0">N </tspan><tspan class="cls-2" x="114.3" y="0">G</tspan><tspan x="140.48" y="0">R</tspan><tspan class="cls-14" x="161.77" y="0">EE</tspan><tspan class="cls-17" x="200.05" y="0">N-</tspan><tspan class="cls-13" x="240.6" y="0">S</tspan><tspan class="cls-9" x="259.34" y="0">O</tspan><tspan class="cls-17" x="285.93" y="0">U</tspan><tspan class="cls-7" x="308.39" y="0">N</tspan><tspan class="cls-17" x="331.47" y="0">D </tspan><tspan class="cls-15" x="361.63" y="0">F</tspan><tspan class="cls-8" x="379.96" y="0">E</tspan><tspan class="cls-9" x="398.21" y="0">S</tspan><tspan class="cls-11" x="417.47" y="0">T</tspan><tspan class="cls-16" x="437.39" y="0">I</tspan><tspan class="cls-6" x="445.02" y="0">V</tspan><tspan class="cls-3" x="464.04" y="0">A</tspan><tspan class="cls-17" x="488.21" y="0">L</tspan></text>
</svg>