<?xml version="1.0" encoding="UTF-8"?>
<svg id="Layer_1" xmlns="http://www.w3.org/2000/svg" version="1.1" viewBox="0 0 32 32">
  <!-- Generator: Adobe Illustrator 29.8.2, SVG Export Plug-In . SVG Version: 2.1.1 Build 3)  -->
  <defs>
    <style>
      .st0 {
        fill: #48bc90;
      }
    </style>
  </defs>
  <path class="st0" d="M31.6,11.7c-1.1-3.5-4.3-5.7-7.8-5.7C22.7,2.8,19.6.4,16,.4s-6.7,2.4-7.8,5.6c-3.4,0-6.6,2.2-7.8,5.6-1.2,3.5.1,7.2,2.9,9.2-1.1,3.3,0,7,2.9,9.2,2.9,2.2,6.8,2.1,9.7,0,2.8,2.1,6.7,2.2,9.7,0,3-2.1,4.1-5.9,3-9.2,2.8-2,4.1-5.7,3-9.2Z"/>
</svg>