<?xml version="1.0" encoding="UTF-8"?>
<svg id="Layer_1" xmlns="http://www.w3.org/2000/svg" version="1.1" viewBox="0 0 512 512">
  <!-- Generator: Adobe Illustrator 29.8.2, SVG Export Plug-In . SVG Version: 2.1.1 Build 3)  -->
  <defs>
    <style>
      .st0 {
        fill: #111;
      }

      .st1 {
        fill: #ffce00;
      }
    </style>
  </defs>
  <polygon class="st1" points="130.11 141.71 151.27 102.52 172.58 141.71 217.48 148.79 185.33 181.75 193.62 228.67 150.5 206.22 108.88 228.67 117.78 183.57 82.18 148.79 130.11 141.71"/>
  <g>
    <path class="st0" d="M192.2,231.9c-.4,0-.59-.1-.7-.17l-.17-.11-40.08-21.27-38.81,21.02c-1.43.46-1.8.46-3.06.46-.55,0-1.64-.52-2.6-.99-.89-.68-1.61-2.03-1.28-3.35l.04-.16,7.35-44.92-32.52-30.9c-1.23-1.25-1.61-2.8-1.33-3.63l.05-.15.04-.15c.21-.85.65-1.82,3.11-2.47l44.5-6.47,20.4-39.97.05-.12c.49-1.14,2.01-1.65,3.31-1.65s2.82.51,3.31,1.65l.05.12,20.39,39.97,44.5,6.47c2.46.66,2.9,1.62,3.11,2.47.38,1.52.11,2.94-.67,3.46l-.31.21-32.01,31.19,7.35,44.89.04.16c.35,1.39-.48,2.82-1.44,3.46-.89.59-1.87.95-2.62.95ZM92.24,151.62l28.33,27.35c.83.83,1.41,2.36,1.31,2.86l-.09.28-6.9,39.46,34.94-18.97h.01c.21-.01.46-.01.67-.01,1.36,0,1.38,0,2.09.35l35.06,18.51-6.89-39.36-.09-.28c-.1-.48.48-2.01,1.36-2.89l28.28-27.3-39.34-5.9h-.3c-.44-.07-1.54-1.04-1.85-1.67l-17.54-35.08-17.67,35.34-.09.27c-.23.68-1.03,1.14-1.64,1.14h-.3l-39.34,5.9Z"/>
    <g>
      <g>
        <path class="st0" d="M39.56,492.48c-2.46,0-3.76-1.3-3.76-3.76v-194.72c0-2.46,1.3-3.76,3.76-3.76h82.23c2.46,0,3.76,1.3,3.76,3.76v194.72c0,2.56-2.24,3.76-3.76,3.76H39.56ZM43.32,484.97h74.71v-187.2H43.32v187.2Z"/>
        <path class="st0" d="M121.79,492.48c-2.46,0-3.76-1.3-3.76-3.76s1.3-3.76,3.76-3.76h78.47v-149.19h-78.47c-2.46,0-3.76-1.3-3.76-3.76s1.3-3.76,3.76-3.76h82.23c2.46,0,3.76,1.3,3.76,3.76v156.7c0,2.46-1.3,3.76-3.76,3.76h-82.23Z"/>
        <g>
          <path class="st0" d="M204.02,492.48c-2.46,0-3.76-1.3-3.76-3.76s1.3-3.76,3.76-3.76h78.47v-111.95h-78.47c-2.46,0-3.76-1.3-3.76-3.76s1.3-3.76,3.76-3.76h82.23c2.46,0,3.76,1.3,3.76,3.76v119.47c0,2.46-1.3,3.76-3.76,3.76h-82.23Z"/>
          <g>
            <path class="st0" d="M286.25,492.48c-2.46,0-3.76-1.3-3.76-3.76s1.3-3.76,3.76-3.76h78.47v-74.71h-78.47c-2.46,0-3.76-1.3-3.76-3.76s1.3-3.76,3.76-3.76h82.23c2.46,0,3.76,1.3,3.76,3.76v82.23c0,2.46-1.3,3.76-3.76,3.76h-82.23Z"/>
            <path class="st0" d="M368.48,492.48c-2.46,0-3.76-1.3-3.76-3.76s1.3-3.76,3.76-3.76h79.25v-37.48h-79.25c-2.46,0-3.76-1.3-3.76-3.76s1.3-3.76,3.76-3.76h83.01c2.46,0,3.76,1.3,3.76,3.76v44.99c0,2.46-1.3,3.76-3.76,3.76h-83.01Z"/>
          </g>
        </g>
      </g>
      <path class="st0" d="M423.56,431.98c-10.39,0-19.55-7.68-20.86-17.47l-.07-.52-42.12-101.58-21.4,22.47,16.97,51.73c1.32,6.13.53,11.11-2.57,16.11-3.45,4.79-7.95,7.75-12.68,8.34-.98.12-1.96.18-2.93.18-9.1,0-16.78-5.47-19.1-13.6l-.07-.25-25.37-58.44v-.59l-.21-.62c-2.57-7.71-3.07-17.47-1.41-27.49,1.89-9.41,5.03-17.22,8.2-20.39l36.35-37.18-1.64-2.66c-30.53-49.43-35.09-93.29-35.09-115.04v-4.38c1.43-10.03,8.13-18.93,17.96-23.85l.09-.05c5.21-2.78,10.71-4.18,16.35-4.18s11.14,1.41,16.35,4.18c22.57,11.79,52.34,34.87,81.72,63.34,28.98,28.09,43.2,47.37,44.19,52.3.61,9.4-3.39,16.96-11,20.76-2.65,1.33-5.49,2-8.45,2-5.2,0-10.33-2.15-14.09-5.9l-40.43-41.44,42.91,214.56v1.65c-1.43,9.62-11.46,18-21.6,18ZM411.09,412.59c1.13,6.77,6.83,11.87,13.25,11.87,5.49,0,12.11-4.24,13.25-11.1l.12-.73-45.93-226.56-.02-.09c-.33-1.3.37-3.28,1.79-3.98.51-.26,1.08-.39,1.7-.39,1.13,0,2.25.44,2.99,1.19l49.63,50.4c2.47,2.47,5.5,3.76,8.79,3.76,2,0,4.05-.5,5.93-1.44,5.09-2.55,7.64-7.03,6.81-11.99l-.09-.54-.23-.49c-5.74-12.29-69.27-82.11-121.97-109.66-4.06-2.25-8.35-3.39-12.75-3.39s-8.58,1.11-12.59,3.29c-5.64,2.35-12.18,8.4-13.86,18.47l-.05.33v3.43c0,17.15,3.61,62.79,37.07,116.16l.09.14.1.13c1.08,1.44.55,3.13-.4,4.08l-38.82,39.59c-2.15,2.15-4.65,11.42-5.72,16.75-1.6,7.22-1.01,15.69,1.68,23.77l.06.18,25.34,57.58v.71l.29.71c2.09,5.22,7.32,8.72,13.02,8.72,3.21,0,5.58-2.37,7.48-4.27l.46-.46.29-.58c.88-1.76,2.21-4.43,1.08-8.97l-.04-.15-17.89-53.67c-.27-.82,0-2.51.92-4.02l26.89-28.43,26.34-27.11c.71-.71,1.61-1.11,2.56-1.11s1.85.4,2.6,1.16c1.53,1.53,1.53,3.67,0,5.2l-24.39,24.39,43.49,105.16c.17.82.49,1.47.71,1.9,0,.01.01.03.02.04Z"/>
      <path class="st0" d="M286.25,96.85c-20.96,0-38.67-17.71-38.67-38.67s17.71-38.67,38.67-38.67,38.67,17.71,38.67,38.67-17.71,38.67-38.67,38.67ZM286.25,27.03c-16.89,0-31.15,14.27-31.15,31.15s14.27,31.15,31.15,31.15,31.15-14.27,31.15-31.15-14.27-31.15-31.15-31.15Z"/>
    </g>
  </g>
</svg>