<?xml version="1.0" encoding="UTF-8"?>
<svg id="Layer_1" xmlns="http://www.w3.org/2000/svg" version="1.1" xmlns:xlink="http://www.w3.org/1999/xlink" viewBox="0 0 711 360">
  <!-- Generator: Adobe Illustrator 29.8.2, SVG Export Plug-In . SVG Version: 2.1.1 Build 3)  -->
  <defs>
    <style>
      .st0 {
        fill: #96d9c9;
      }

      .st1 {
        fill: #fae0b2;
      }

      .st2 {
        fill: #fff;
      }

      .st3 {
        fill: none;
      }

      .st4 {
        fill: #07345a;
      }

      .st5 {
        fill: #f7a491;
      }

      .st6 {
        fill: #184655;
      }

      .st7 {
        clip-path: url(#clippath-1);
      }

      .st8 {
        fill: #86b1f2;
      }

      .st9 {
        fill: #355389;
      }

      .st10, .st11 {
        fill: #f47458;
      }

      .st11 {
        isolation: isolate;
        opacity: .68;
      }

      .st12 {
        fill: #efefef;
      }

      .st13 {
        fill: #f7cc7f;
      }

      .st14 {
        fill: #3c8f7c;
      }

      .st15 {
        fill: #13375b;
      }

      .st16 {
        fill: #466eb6;
      }

      .st17 {
        fill: #50bfa5;
      }

      .st18 {
        fill: #b75742;
      }

      .st19 {
        fill: #f47257;
      }

      .st20 {
        fill: #f48c7f;
      }

      .st21 {
        fill: #9bc1f9;
      }

      .st22 {
        clip-path: url(#clippath);
      }
    </style>
    <clipPath id="clippath">
      <rect class="st3" width="711" height="356.5"/>
    </clipPath>
    <clipPath id="clippath-1">
      <rect class="st3" width="711" height="360"/>
    </clipPath>
  </defs>
  <g class="st22">
    <g class="st7">
      <g>
        <path class="st8" d="M250.98,357.6s-11.77.85-23.11-8.49c-20.58-16.95-47.17-49.89-51.97-57.97-7.45-12.53,3.97-13.54,3.97-13.54,0,0-24.42-26.15-21.36-35.26,3.05-9.12,16.91,2.12,16.91,2.12,0,0-14.03-27.98-7.85-31.31,11.51-6.21,29.68,26.07,29.68,26.07,0,0-3.07-14.69,4.75-14.41,11.79.42,13.84,26.25,13.84,26.25,0,0,1.47-9.02,8.49-5.04,12.58,7.14,26.66,111.58,26.66,111.58h0Z"/>
        <path class="st0" d="M364.3,330.32l14.06-146.81-173.64-.86,17.27,149.02,142.31-1.35Z"/>
        <path class="st14" d="M222.11,359.34h150.03l1.35-25.99,6.42-3.04-164.22,1.35,4.73,4.39,1.69,23.29Z"/>
        <path class="st13" d="M388.24,183.74l-189.39-.58.5-6.65c.38-5.02,4.03-8.88,8.4-8.88h171.65c4.38,0,8.02,3.85,8.4,8.88l.43,7.23Z"/>
        <path class="st13" d="M377.27,167.63h-168.41l.61-13.12c.24-5.22,3.98-9.3,8.51-9.3h150.16c4.53,0,8.27,4.09,8.52,9.3l.61,13.12Z"/>
        <path class="st13" d="M298.55,130.02c.34-2.58-1.81-4.86-4.58-4.86h-5.75c-2.77,0-4.92,2.28-4.58,4.86l.03.23h14.85l.03-.23h0Z"/>
        <path class="st13" d="M283.67,130.25l3.46,26.22h7.92l3.46-26.22h-14.85Z"/>
        <path class="st8" d="M548.06,107.07c-.46-7.34-6.95-13.07-14.79-13.07h-95.79c-7.85,0-14.33,5.73-14.79,13.07l-.15,2.43h125.68l-.15-2.43Z"/>
        <path class="st21" d="M422.53,109.49l-15.56,247.23h156.8l-15.56-247.23h-125.68Z"/>
        <path class="st8" d="M492.83,52.61c.34-2.58-1.81-4.86-4.58-4.86h-5.75c-2.77,0-4.92,2.28-4.58,4.86l.03.23h14.85l.03-.23Z"/>
        <path class="st21" d="M555.71,282.53l-10.57-6.08c36.36-55.48,81.48-141.03,67.95-157.54-18.03-21.99-66.1,10.01-66.58,10.35l-7.33-9.37c2.36-1.62,58.12-39.31,83.74-8.05,23.62,28.82-51.85,147.25-67.22,170.7h0Z"/>
        <path class="st8" d="M477.95,52.84l3.46,26.22h7.92l3.46-26.22h-14.85Z"/>
        <path class="st8" d="M485.37,65.18c-25.05,0-45.39,13.05-45.97,29.28h91.93c-.58-16.23-20.91-29.28-45.97-29.28h0Z"/>
        <path class="st21" d="M419.53,157.24l-4.06,64.42-44.62-93.93h23.62l25.05,29.51Z"/>
        <path class="st21" d="M313.71,30.58l.3-8.42-6.77-5.03c-.77-.57-.55-1.78.37-2.04l8.11-2.31,2.69-7.99c.31-.91,1.52-1.07,2.06-.28l4.71,6.99,8.44.09c.96,0,1.49,1.12.9,1.87l-5.2,6.64,2.53,8.04c.29.92-.6,1.76-1.5,1.43l-7.92-2.89-6.88,4.88c-.79.55-1.87-.03-1.83-.98h0Z"/>
        <path class="st17" d="M21.54,160.83l-1.35,5.43-8.99-1.21-2.95,7.69-6.87.2.1,3.48,9.19-.27,2.8-7.29,9.35,1.25,2.03-8.17-3.31-1.12Z"/>
        <path class="st0" d="M436.99,49.52l5.18-.08,2.15-4.82,5.81.32.71-5.84,6.59.07,1.32-5.29,6.36-.96.36,2.4-4.75.72-1.39,5.59-6.33-.07-.72,5.93-6.41-.35-2.1,4.7-4.8.07-.74,3.38-2.37-.51,1.14-5.26Z"/>
        <path class="st21" d="M177.46,1.28l-.06,5.17,4.77,2.27-.47,5.8,5.82.86-.24,6.58,5.26,1.45.8,6.37-2.41.3-.6-4.76-5.56-1.53.23-6.32-5.92-.88.52-6.4-4.65-2.22.05-4.8-3.36-.82.58-2.36,5.24,1.28Z"/>
        <path class="st13" d="M23.01,124.7c2.61,6.08-.21,13.12-6.29,15.73-6.09,2.61-13.14-.21-15.75-6.28s.21-13.12,6.29-15.73c6.09-2.61,13.14.21,15.75,6.28Z"/>
        <path class="st12" d="M6.85,133.69c1.4,3.25,5.16,4.75,8.42,3.36,3.25-1.39,4.76-5.16,3.36-8.41l-11.78,5.05Z"/>
        <path class="st13" d="M185.49,80.72c0,4.28-3.47,7.75-7.75,7.75s-7.76-3.47-7.76-7.75,3.47-7.75,7.76-7.75,7.75,3.47,7.75,7.75Z"/>
        <path class="st13" d="M173.89,57.99c.3,2.27.42,4.69,1.03,6.91.53,1.9,3.47,1.54,3.46-.47-.01-2.45-.6-4.99-.95-7.42-.14-.98-1.39-1.52-2.26-1.29-1.07.29-1.42,1.27-1.29,2.26h0Z"/>
        <path class="st13" d="M159.96,66.64c2.46,1.69,4.57,3.71,6.81,5.66,1.75,1.52,3.91-.74,2.51-2.5-2.02-2.53-4.75-4.59-7.41-6.41-.84-.57-2.09-.16-2.58.67-.55.93-.16,2,.68,2.58Z"/>
        <path class="st13" d="M163.86,80.81c.61-.43.78-1.08.46-1.76-.76-1.63-2.96-1.71-4.53-1.76-1.64-.06-3.29.16-4.87.58-2.33.62-1.34,4.24,1,3.62,4.58-1.22,6.16.56,7.94-.67Z"/>
        <path class="st13" d="M165.28,96.01c2.48-3.13,4.4-4.12,4.24-5.95-.09-1.07-.9-1.64-1.94-1.47-1.23.19-1.97,1.43-2.76,2.27-.76.82-1.5,1.63-2.18,2.51-.62.8-.78,1.87,0,2.64.65.65,2.01.8,2.65,0h0Z"/>
        <path class="st13" d="M174.01,97.19c.58,2.04.69,2.78,1.56,3.77.76.86,2.51.47,2.7-.71.23-1.37-.02-1.91-.63-4.06-.28-.98-1.33-1.58-2.31-1.31-.97.27-1.59,1.33-1.31,2.31Z"/>
        <path class="st13" d="M183.82,93.02c3.07,2.69,3.69,3.43,4.97,3.38.75-.03,1.64-.69,1.54-1.53-.19-1.58-1.07-2.06-3.91-4.45-.76-.64-1.86-.74-2.6,0-.67.67-.75,1.94,0,2.6Z"/>
        <path class="st13" d="M197.64,82.63c1.33-.59.97-2.83-.41-3.11-1.32-.27-1.84-.09-8.37.64-1.01.11-1.88.78-1.88,1.88,0,.93.87,1.99,1.88,1.88,6.78-.74,7.44-.69,8.78-1.28Z"/>
        <path class="st13" d="M188.28,71.4c3.77-3.17,4.24-2.53,5.78-4.52.7-.91-.24-2.51-1.37-2.38-1.44.16-1.84.38-3.8,1.72-1.14.78-2.23,1.62-3.29,2.51-.78.65-.68,2,0,2.68.78.78,1.89.66,2.68,0h0Z"/>
        <path class="st9" d="M229.45,356.84s-109.55-4.63-128.99-24.59c-19.44-19.95,12.49-25.57,12.49-25.57,0,0-46.77-31.27-44.02-48.3,2.74-17.03,19.21-11.67,19.21-11.67,0,0-30.89-33.81-22.11-47.52,13.48-21.07,67.45,34.45,67.45,34.45,0,0-11.5-25.07,4.18-26.89,23.65-2.74,36.01,51.66,36.01,51.66,0,0-4.12-18.09,11.32-13.13,27.7,8.91,44.48,111.56,44.48,111.56h0Z"/>
        <path class="st16" d="M66.02,199.2c-8.77,13.71,22.11,47.52,22.11,47.52,0,0-16.47-5.35-19.21,11.67-2.74,17.03,44.02,48.3,44.02,48.3,0,0-31.93,5.61-12.49,25.57,19.44,19.95,128.99,24.59,128.99,24.59L66.02,199.2Z"/>
        <path class="st9" d="M224.01,344.03s-69.8,14.93-85.5,15.86c-15.7.93-12.02-10.19-12.02-10.19,0,0-27.69,6.55-35.63-.66-7.94-7.21,3.37-11.08,3.37-11.08,0,0-37.09-3.82-37.91-11.17-1.52-13.7,34.31-13.76,34.31-13.76,0,0-10.56-3.18-7.06-10.32,5.28-10.77,31.82,3.25,31.82,3.25,0,0-1.01-8.6,5.9-13.22,12.39-8.29,102.73,51.3,102.73,51.3h0Z"/>
        <path class="st20" d="M376.09,42.68l.93-6.35-5.85-1.26.64-6.29-5.45-1.89-.29-4.79-2.42.14.39,6.41,5.16,1.79-.67,6.55,5.76,1.23-.85,5.75,2.65-1.3Z"/>
        <path class="st20" d="M658.01,154.18l-1.46-6.25-5.91.97-1.71-6.09-5.76.23-2.03-4.35-2.2,1.02,2.71,5.82,5.46-.22,1.78,6.34,5.81-.95,1.32,5.66,1.99-2.18Z"/>
        <path class="st13" d="M562.89,16.56l-7.11,5.11,4.33,6.92-6.79,5.35,3.32,7.12-4.42,4.83,2.45,2.23,5.91-6.46-3.14-6.75,7.05-5.56-4.25-6.81,6.44-4.64-3.79-1.35Z"/>
        <path class="st13" d="M360.55,65.02l-3.7-5.24-5.11,3.12-3.87-5.01-5.25,2.37-3.51-3.27-1.66,1.78,4.7,4.38,4.98-2.25,4.03,5.21,5.02-3.07,3.36,4.75,1.02-2.77Z"/>
        <path class="st1" d="M690.54,131.74s2.88-1.51,6.28.17c3.04,1.49,3.95,4.92,2.57,7.73-1.59,3.25-6.33,5.7-15.38,5.41-5.77-6.97-6.73-12.21-5.14-15.46,1.38-2.81,4.65-4.19,7.69-2.71,3.41,1.67,3.98,4.86,3.98,4.86Z"/>
        <path class="st1" d="M664.8,120.72c2.72,1.93,4.99,3.33,7.3,4.61.76.42,1.96,1.38,2.84,1.02.46-.19.73-.57.62-1.09-.21-.94-1.49-1.33-2.26-1.75-2.34-1.3-4.91-2.87-7.43-4.62-.47-.33-1.18-.09-1.46.38-.31.53-.09,1.12.38,1.45h0Z"/>
        <path class="st1" d="M700.45,148.35c1.11.64,2.22,1.26,3.34,1.88,1.07.59,2.23,1.48,3.44,1.68.9.15,1.52-.8.89-1.52-.81-.93-2.16-1.44-3.23-2.03-1.12-.62-2.24-1.24-3.37-1.84-1.21-.64-2.26,1.15-1.07,1.83Z"/>
        <path class="st1" d="M666.94,141.06c2.72-1.57,4.82-1.34,6.63-1.51.97-.09,1.16-1.34.23-1.68-2.55-.94-5.7.05-7.93,1.36-1.17.69-.12,2.51,1.07,1.83Z"/>
        <path class="st1" d="M676.51,154.12c.6-1.18,1.4-2.2,2.43-3.04.63-.51,2.98-1.6,1.87-2.68-1.05-1.01-2.85.64-3.62,1.33-1.04.93-1.89,2.06-2.51,3.31-.61,1.22,1.22,2.3,1.84,1.08h0Z"/>
        <path class="st1" d="M689.9,152.4c.37.79.74,1.59,1.1,2.39.37.8.6,1.78,1.51,2.07.51.16.95-.2,1.13-.64.33-.81-.41-1.8-.75-2.53-.37-.79-.74-1.59-1.12-2.38-.25-.53-1.01-.66-1.48-.38-.54.32-.63.94-.39,1.48h0Z"/>
        <path class="st1" d="M686.7,120.62c.83-7.01.89-7.02.67-7.75-.22-.76-1.3-.93-1.7-.22-.39.7-.32.59-1.16,7.97-.07.59.55,1.09,1.09,1.09.65,0,1.03-.5,1.09-1.09Z"/>
        <path class="st1" d="M696.9,126.24c.9-.74,1.71-1.56,2.44-2.47.67-.85,1.82-2.06,1.32-3.19-.11-.25-.46-.43-.72-.41-1.09.09-1.64,1.45-2.26,2.23-.68.85-1.45,1.63-2.27,2.35-.43.38-.39,1.11,0,1.49.44.44,1.05.36,1.5,0h0Z"/>
        <path class="st1" d="M710.73,135.21c.41-.34.29-.94,0-1.3-.6-.74-2.02-.55-2.88-.53-1,.02-1.99.15-2.97.32-.57.11-.89.79-.74,1.31.17.61.74.83,1.32.74,3.74-.56,4.28.29,5.29-.55h0Z"/>
        <path class="st17" d="M241.28,324.75c0,7.36,16.28,17.66,26.46,19.74,10.8,2.21,20.75,5.37,20.75,12l273.69.06c0-6.63,7.37-9.85,18.18-12.06,10.18-2.09,26.44-12.39,26.44-19.74H241.28Z"/>
        <path class="st14" d="M234.57,318.17h386.19c1.95,0,3.53,1.58,3.53,3.52v.31c0,1.94-1.58,3.52-3.53,3.52H234.57c-1.95,0-3.53-1.58-3.53-3.52v-.31c0-1.95,1.58-3.52,3.53-3.52Z"/>
        <path class="st18" d="M540.68,318.17h-191.56l2.68-10.65,28.09-112.06h133l27.8,122.71Z"/>
        <path class="st11" d="M426.94,318.17h-57.23l29.88-122.71h22.6l4.75,122.71Z"/>
        <path class="st11" d="M500.98,318.17h-43.69l-5.91-122.71h22.95l26.66,122.71Z"/>
        <path class="st1" d="M459.73,187.02s-24.02-2.58-39.52-5.93c-15.5-3.36-42.63-7.15-49.87,4.46-7.23,11.61-2.24,27.87,4.99,28.9,7.23,1.03,12.75-1.03,18.94-5.16,6.2-4.13,7.29-8.66,9.01-12.61,0,0,2.1-3.99,4.16,4.27,2.07,8.26-10.24,36.14-8.95,50.07,1.29,13.93,17.64,12.11,19.02,1.11,1.08-8.59-11.11-47.22-5.17-52.64,5.94-5.42,12.74-3.44,13.78,3.27,1.03,6.71-6.88,23.65-4.9,32.78,2.07,9.55,14.73,6.19,14.98-2.84.26-9.03-8.61-29.6-4.22-31.66,4.39-2.07,10.42,9.99,21.53,16.44,11.11,6.45,23.76-6.45,27.9-13.16s19.89-16.52,27.38.51c7.49,17.03-5.43,58.57-3.36,70.44,2.07,11.87,21.96,15.23,24.54-.78,2.18-13.53-10.22-49.02-13.64-65.12-.67-3.14.06-6.43,2.03-8.97,1.64-2.1,3.01-5.85,1.02-12.09-3.61-11.35-16.79-16.26-32.29-11.1-15.5,5.16-27.39,9.81-27.39,9.81h0Z"/>
        <path class="st1" d="M484.53,186.25s-15.76-2.58-16.79-2.58-21.7-8.26-34.36-6.97c-12.66,1.29-30.74,6.71-30.74,6.71,0,0,55.28,11.1,56.06,11.1s25.83-8.25,25.83-8.25h0Z"/>
        <path class="st15" d="M477.72,126.44c5.51,5.11,9.88,12.98,8.78,20.43-1.99,14.43-21.31,21.15-25.3,23.88,7.92-4.78,17.23-9.48,21.56-17.75,4.64-8.71.5-18.1-6.92-24.54l1.88-2.01h0Z"/>
        <path class="st10" d="M472.42,184.4c-2.97,6.93-12.63,9.44-21.57,5.61-8.94-3.83-13.78-12.55-10.81-19.47,2.97-6.93,12.63-9.44,21.57-5.61,8.94,3.83,13.78,12.55,10.81,19.47Z"/>
        <path class="st18" d="M468.08,169.18c3.53,11.37-8.98,19.17-21.85,13.66-2.51-1.08-4.69-2.55-6.47-4.25,1.44,4.64,5.45,9,11.09,11.42,8.94,3.83,18.6,1.32,21.57-5.61,2.14-4.98.22-10.88-4.34-15.23Z"/>
        <path class="st20" d="M113.09,64.56c-6.79-6.56-17.62-6.38-24.19.4-6.57,6.78-6.39,17.6.4,24.16,6.79,6.56,17.62,6.38,24.19-.4,6.57-6.78,6.39-17.6-.4-24.16ZM96.63,81.56c-2.61-2.52-2.68-6.67-.15-9.28,2.52-2.6,6.68-2.67,9.29-.15,2.61,2.52,2.68,6.67.15,9.28-2.52,2.6-6.68,2.67-9.29.15Z"/>
        <path class="st1" d="M99.65,66.41c-.34-.33-.35-.88-.02-1.22l1.21-1.25c.33-.35.88-.35,1.22-.02.35.33.35.88.02,1.22l-1.21,1.25c-.33.34-.88.35-1.23.02h0Z"/>
        <path class="st1" d="M110.83,83.5c-.39.28-.93.2-1.21-.19l-1.02-1.4c-.28-.39-.2-.93.19-1.21.39-.28.93-.2,1.21.19l1.02,1.4c.28.39.2.93-.19,1.21Z"/>
        <path class="st1" d="M92.36,68.41v-.07c.1-.45.54-.74.99-.65l1.14.23c.45.09.74.52.65.97v.07c-.1.45-.54.74-.99.65l-1.14-.23c-.45-.09-.74-.52-.65-.97Z"/>
        <path class="st1" d="M101.41,87.52v-.07c.1-.45.54-.74.99-.65l1.14.22c.45.09.74.52.65.97v.07c-.1.45-.54.74-.99.65l-1.14-.22c-.45-.09-.74-.52-.65-.97Z"/>
        <path class="st1" d="M108.27,69.09l-.06.04c-.36.29-.88.22-1.17-.13l-.72-.91c-.29-.36-.22-.88.13-1.17l.06-.04c.36-.29.88-.22,1.17.13l.72.91c.29.36.22.88-.13,1.17Z"/>
        <path class="st1" d="M98.32,88.42l-.06.04c-.36.29-.88.22-1.17-.13l-.72-.91c-.29-.36-.23-.88.13-1.17l.06-.04c.36-.29.88-.22,1.17.13l.72.91c.29.36.23.88-.13,1.17Z"/>
        <path class="st1" d="M113.63,74.9v.07c.03.46-.32.85-.78.88l-1.16.07c-.46.02-.85-.32-.88-.78v-.07c-.03-.46.32-.85.78-.88l1.16-.06c.46-.03.85.32.88.78h0Z"/>
        <path class="st1" d="M92.54,82.45v.07c.03.46-.32.85-.78.88l-1.16.07c-.46.02-.85-.32-.88-.78v-.07c-.03-.46.32-.85.78-.88l1.16-.07c.46-.03.85.32.88.78Z"/>
        <path class="st1" d="M91.29,76.33c-.39.27-.93.17-1.2-.23l-.97-1.43c-.27-.39-.17-.93.23-1.2.39-.27.93-.17,1.2.23l.97,1.43c.27.39.17.93-.23,1.2Z"/>
        <path class="st13" d="M264.44,36.47c-1.09-1.53-1.22-3.49-.53-5.24-1.89.06-3.72-.76-4.84-2.34-.33-.47-.58-.97-.74-1.5-1.85.61-4.06-.15-5.36-1.99-.36-.51-.62-1.06-.78-1.62-3.64.14-7.29,1.31-10.49,3.57-8.83,6.23-10.93,18.42-4.69,27.24,6.23,8.82,18.44,10.92,27.27,4.69,6.94-4.89,9.72-13.47,7.57-21.21-2.69,1.27-5.82.65-7.42-1.6ZM257.33,49.44c-3.39,2.39-8.08,1.58-10.47-1.8-2.39-3.39-1.59-8.07,1.8-10.46,3.39-2.39,8.08-1.58,10.47,1.8,2.39,3.39,1.59,8.07-1.8,10.46Z"/>
        <path class="st1" d="M240.93,42.83c-.45.31-1.07.21-1.38-.24l-1.14-1.61c-.31-.45-.21-1.06.24-1.38.45-.31,1.07-.21,1.38.24l1.14,1.61c.32.45.21,1.06-.24,1.38Z"/>
        <path class="st1" d="M262.01,35.91v.08c.06.52-.33.98-.85,1.03l-1.14.1c-.52.05-.98-.34-1.03-.86v-.08c-.06-.52.33-.98.85-1.03l1.14-.1c.52-.05.99.34,1.03.86h0Z"/>
        <path class="st1" d="M241.62,51.45l-.08-.03c-.49-.19-.72-.75-.53-1.23l.5-1.23c.19-.48.75-.72,1.24-.53l.08.03c.48.19.72.75.53,1.23l-.5,1.23c-.2.48-.75.72-1.23.53Z"/>
        <path class="st1" d="M266.19,42.31l.08.03c.49.2.72.75.53,1.23l-.5,1.23c-.2.49-.75.72-1.24.53l-.08-.03c-.49-.2-.72-.75-.53-1.23l.5-1.23c.2-.49.75-.72,1.23-.53Z"/>
        <path class="st1" d="M245.75,33.68l.09.16c.23.44.06.98-.38,1.22l-1.26.66c-.44.23-.99.06-1.22-.38l-.08-.16c-.23-.44-.07-.98.38-1.22l1.26-.66c.44-.23.99-.06,1.22.38Z"/>
        <path class="st1" d="M262.6,50.58l-.04-.07c-.24-.46-.07-1.04.4-1.28l1.17-.62c.46-.24,1.04-.07,1.28.4l.04.07c.24.46.07,1.04-.4,1.28l-1.18.62c-.46.24-1.04.07-1.28-.4h0Z"/>
        <path class="st1" d="M253.12,32.16h-.08c-.52-.08-.89-.56-.82-1.07l.17-1.32c.07-.52.55-.88,1.07-.82h.08c.52.08.89.56.82,1.07l-.17,1.32c-.07.52-.55.88-1.07.82Z"/>
        <path class="st1" d="M257.46,54.22h.08c.52.08.89.55.82,1.07l-.17,1.32c-.07.52-.54.88-1.07.82h-.08c-.52-.08-.89-.55-.82-1.07l.17-1.32c.07-.52.54-.88,1.07-.82h0Z"/>
        <path class="st1" d="M250.32,54.32c.22.5-.01,1.08-.51,1.3l-1.82.79c-.5.22-1.09-.01-1.3-.51-.22-.5.01-1.08.51-1.3l1.82-.79c.5-.22,1.09.01,1.3.51Z"/>
        <path class="st10" d="M403.15,86.63c-11.83,8.89-28.63,6.52-37.53-5.29-.01-.01-.02-.03-.03-.04,23.65-17.78,21.21-15.94,21.39-16.07.74-.56,20.81-15.64,21.45-16.12,0,.02.02.03.03.04,8.9,11.81,6.53,28.6-5.3,37.49h0Z"/>
        <path class="st1" d="M405.79,51.09s-37.54,28.22-37.53,28.21c3.99,4.96,9.99,9.33,15.73,9.57,4.44.18,12.03-1.01,17.15-4.86,5.08-3.8,8.4-9.49,9.2-15.82h-.02c.75-5.86-.85-12.1-4.54-17.11h0Z"/>
        <path class="st13" d="M391.11,64.13l14.31-10.75c2.51,3.88,3.71,8.41,3.45,13.03l-17.76-2.28h0Z"/>
        <path class="st13" d="M390.56,67.3l17.93,2.28c-.46,2.29-1.28,4.47-2.44,6.5-1.22,2.13-2.77,4.02-4.62,5.63l-10.87-14.41h0Z"/>
        <path class="st13" d="M398.85,83.64c-3.93,2.53-8.52,3.71-13.19,3.41l2.39-17.74,10.79,14.33h0Z"/>
        <path class="st13" d="M382.47,86.62c-2.25-.48-4.39-1.3-6.39-2.45-2.09-1.21-3.95-2.74-5.53-4.56l14.32-10.79-2.4,17.79Z"/>
        <path class="st15" d="M621.88,166.33c-6.03-3.05-13.27-1.74-17.33,3.4-3.64-1.02-7.72-.57-10.94,1.25-6.35,3.58-10.18,13.5-4.94,18.82,1.32,5.51,3.67,9.85,9.41,9.86,3.45,5.93,14.03,7.57,20.08,1.92,5.35,1.56,11.02-1.41,14.68-5.49.86-.96,1.59-2.47,1.92-2.68,0,0,13.73-2.55,12.35-15.26-1.44-13.31-16.02-22.36-25.23-11.82h0Z"/>
        <path class="st5" d="M570.99,326.12c.37,5.76,1.57,10.93,1.74,11.55.08.29,1.08,1.45,1.17,1.76-1.42,6.8-6.29,10.36-10.75,12.79,1.31-3.36,3.77-7.1,3.6-7.9-.26-1.27-1.19-7.07-3.74-14.51,3.47.02,4.94-1.91,7.98-3.67h0Z"/>
        <path class="st9" d="M586.92,243.18l21.54,16.34s-10.66,10.25-14.66,14.06c-4,3.81-24.18,17.59-24.53,18.46-.07.18,1.02,2.24,1.38,4.82.96,6.97,2.11,20.53,2.52,32.17-2.28,2.33-7.25,2.92-10.22,3.67-7.46-14.23-10.39-41.66-10.39-44.96,0-5.37,34.37-44.56,34.37-44.56Z"/>
        <path class="st5" d="M649.62,278.58c-.83.52-7.33,8.42-10.11,12.8-2.2-2.15-3.32-4.39-5.93-6.09,2.95-2.76,9.02-9.61,9.78-11.39,1.81-4.22,2.95-4.65,2.95-4.65,0,0,13.7,8.2,14.38,9.81.68,1.61-7.73-2.58-11.08-.49Z"/>
        <path class="st6" d="M642.98,274.85c-1.15-.24,1.22-5.15,1.75-6.29.59-1.28,1.45-1.51,1.66-1.52.55-.02,15.78,9.1,18.12,11.7.16.18.4.67.43.78.91,3.17-12.76.77-14.44-.89-1.5-1.48-2.36-2.67-7.52-3.78Z"/>
        <path class="st16" d="M582.32,248.01s18.8-7.58,18.8-7.59c-.08.03.11.76.13.82,1.76,6.86,11.17,4.21,15.05,16.12,2.74,8.41,1.53,36.74,1.53,36.74,0,0,8.74-6.21,17.91-12.84.84-.6,7.52,6.36,7.52,6.36-12.37,20.26-31.74,28.2-34.22,27.3-8.44-3.1-21.48-57.02-21.46-57.01-1.65-3.22-5.27-9.9-5.27-9.9Z"/>
        <path class="st5" d="M581.62,192.61s-8.82-13.94-10.35-18.58c-1.53-4.64-.01-26.73.13-28.3.14-1.57,5.47-5.86,4.63-7.09-.84-1.23-8.2-2.24-9.43-2-1.23.24-3.64.02-4.62,1.01-.13.13,2.34,5.95,2.29,6.85-.35,6.15-3.85,25.76-2.71,31.05,1.32,6.09,14.41,25.57,14.41,25.57l5.63-8.51h0Z"/>
        <path class="st5" d="M613.65,200.74s23.59.59,28.76,1.01c5.18.43,23.97-1.14,24.7-1.22.73-.08,5.54-8.23,6.34-7.35.8.88-2.68,4.04-1.6,4.86,1.07.82,12.63-1.02,12.48-.16-.29,1.6-7.03,1.39-7.02,2.16,0,.77,7.06-.43,7.54.85.48,1.28-6.78.52-7.07,1.09-.29.57,6.73,1.61,6.02,2.81-.39.65-6.22-1.08-6.19-.2.03.88,4.28,2.88,3.76,3.59-.52.7-3.34-2.15-5.81-2.19-2.47-.04-4.24-1.32-8.18-.24-3.94,1.08-17.38,6.49-25.79,6.09-8.41-.4-26.99-1.23-26.99-1.23l-.94-9.87h-.01Z"/>
        <path class="st13" d="M579.03,225.34c-.32-3.88-.86-14.37-.69-15.66-1.18-4.04-5.47-10.02-6.37-11.71,0,0,5.82-6.59,10.14-6.54,0,0,4.59,5.8,8,7.57.05-.01,1.21.51,1.71.51,3.29-.02,14.8-.37,16.95.27l-1.21,17.76c-.62,1.02-1.37,21.44-2.64,23.11-1.27,1.68-19.79,9.33-22.86,7.36-.12-.08-2.38-14.82-3.03-22.67Z"/>
        <path class="st13" d="M602.91,200.06c.52-.24,1.73-.52,3.49-.55,5.22-.09,14.01-.29,14.01-.29,0,0,2.14,10.68.41,13.25,0,0-13.73,2.04-13.34,3.17l-4.57-15.57Z"/>
        <path class="st5" d="M599.34,192.97s-1.19,6.16-.95,8.59c.24,2.43-.91,10.26-6.06,10.29-5.15.02-.98-9.95-.49-12.34.49-2.38.6-9.75.6-9.75l6.91,3.21h0Z"/>
        <path class="st10" d="M592.32,193.46c.08-2.02.11-3.7.11-3.7l6.91,3.21s-.25,1.26-.49,2.86c-3.03.61-5.21-.51-6.52-2.38Z"/>
        <path class="st5" d="M601.86,175.97s2.66,1.47,3.64,4.67c.97,3.2-.13,11.44-7.01,13.43-6.87,1.99-9.85-4.54-8.43-9.65,1.42-5.11,4.5-11.57,11.81-8.46h0Z"/>
        <path class="st5" d="M589.19,182.45c.13,1.37.89,2.42,1.69,2.34.8-.08,1.34-1.25,1.2-2.62-.13-1.37-.89-2.42-1.69-2.34-.8.08-1.34,1.25-1.2,2.62Z"/>
        <path class="st6" d="M572.76,337.84c.56-1.03,4.5,2.93,5.45,3.75,1.06.92,1.04,1.82.99,2.02-.14.52-12.83,12.83-16.3,14.33-.33.14-.97.07-1.15-.02-1.72-.9,2.54-11.71,5.16-13.63,1.7-1.24,3.33-1.81,5.85-6.45Z"/>
        <path class="st15" d="M601.05,175.56s1.25,9.2,4.22,10.86c2.98,1.66,1.73,5.74,1.73,5.74,0,0,2.7-9.48.35-12.52-2.35-3.04-6.3-4.08-6.3-4.08h0Z"/>
        <path class="st5" d="M603.51,187.73c-.81,1.2-.8,2.61,0,3.16.81.55,2.12.02,2.93-1.18.81-1.2.8-2.61,0-3.16-.81-.55-2.12-.02-2.93,1.18Z"/>
        <path class="st19" d="M570.14,139.61s.04.04.06.06l.87,1.13c-.64-.17-1.86-.52-3.05.29,0,0,.39-.84,2.12-1.49h0Z"/>
        <path class="st2" d="M218.79,242.63c0,1.11-1.04,2.02-2.32,2.02s-2.32-.9-2.32-2.02,1.04-2.02,2.32-2.02,2.32.9,2.32,2.02Z"/>
        <path class="st2" d="M256.59,330.73c3.79-1.23,7.74-2.37,11.74-3.53,24.82-7.18,52.95-15.32,55.31-48.47.5-7.15-.93-12.94-4.28-17.19-9.01-11.47-28.3-10.82-39.12-6.71l3.4,8.93c7.95-3.02,22.58-3.45,28.19,3.68,1.83,2.33,2.59,5.9,2.26,10.61-1.88,26.5-24.49,33.04-48.43,39.96-4.11,1.19-8.16,2.36-12.04,3.63l2.97,9.08h0Z"/>
        <path class="st13" d="M157.71,243.57h130.29c.43,1.96.8,3.96,1.14,5.97h-132.58c.34-2.01.71-4.01,1.14-5.97Z"/>
        <path class="st2" d="M289.15,249.54c1.23,7.22,1.9,14.75,1.9,22.5,0,26.54-7.62,50.57-19.94,67.97h-96.49c-12.32-17.4-19.94-41.43-19.94-67.97,0-7.75.67-15.28,1.9-22.5h132.58,0Z"/>
        <path class="st5" d="M199.07,242.75c3.28-2.89,11.05-.9,13.87.83h-5.68s-4.67-.07-6.35,1.67c-3.14,3.27-5.46,23.35-6.17,36.63-.03.64-.56,1.13-1.2,1.13h-.06c-.66-.04-1.17-.6-1.13-1.26.18-3.47,1.56-34.46,6.71-39h0Z"/>
        <path class="st6" d="M177.4,318.85h32.3v-22.68c-7.94,0-14.38-6.43-14.38-14.36h-3.55c0,7.93-6.44,14.36-14.38,14.36v22.68h0Z"/>
        <path class="st20" d="M183.48,313.38h19.44v-19.42h-19.44v19.42Z"/>
        <path class="st1" d="M372.87,337.96c0,.09.03.18.03.27,0,7.1-11.39,13.63-30.5,18.86H107.31c-19.12-5.23-30.5-11.76-30.5-18.86,0-.09.03-.18.03-.27h296.03Z"/>
        <path class="st2" d="M213.54,220.65c0,.9-.66,1.63-1.47,1.63s-1.47-.73-1.47-1.63.65-1.63,1.47-1.63,1.47.73,1.47,1.63Z"/>
        <path class="st2" d="M223.69,233.82c0,1.71-1.33,3.1-2.97,3.1s-2.97-1.39-2.97-3.1,1.33-3.1,2.97-3.1,2.97,1.39,2.97,3.1Z"/>
        <path class="st2" d="M221.8,226.25c0,1.14-1.1,2.07-2.45,2.07s-2.45-.92-2.45-2.07,1.1-2.06,2.45-2.06,2.45.92,2.45,2.06Z"/>
        <path class="st0" d="M49.92,63.27l-16.44-5.77,4.31,14.66,12.13-8.89Z"/>
        <path class="st10" d="M664.98,83.18l.08.07c5.05-9.24,3.4-25.65,3.23-31.08-.49-15.65-14.94-22.16-22.75-13.53-2.77,3.06-5.92,7.14-11.89,15.97-7.95-1.37-15.42,1.71-20.74,8.83l-.56.75c-4.24-2.71-11.52-.99-15.78,1.19-3.77,1.92-7.33,3.74-13.86,1-6.03-2.53-9.87-1.16-13.25,2.26-8.6-6.48-14.16-11.27-24.36-7.83-7.25-8.08-12.24-12.79-15.89-14.94-9.6-5.66-19.38,2.64-19.54,13.34-.19,12.71,5.22,27.05,7.65,34.01,1.97,13.73,8.81,24.39,21.48,30.64,1.48.73,8.93,3.23,14.91,5.19,3.66,6.27,12.15,12.81,25.29,15.13,13.55,2.4,26.42.77,38.24-4.83,7.46-3.54,15.89-9.59,19.08-15.56.6-1.12,1.07-2.3,1.42-3.51l2.46-.61c14.84-3.71,25.1-20.24,24.78-36.48h0Z"/>
        <path class="st18" d="M668.29,52.16c-.49-15.65-14.94-22.16-22.75-13.53-2.77,3.06-5.92,7.14-11.89,15.97,0,0,25.62,16.25,31.34,28.87v-.3l.08.07c5.05-9.24,3.39-25.65,3.23-31.08h0Z"/>
        <path class="st18" d="M660.19,102.91c-3.76-11.71-14.29-31.02-43.71-43.38-1.28,1.12-2.47,2.42-3.57,3.9l-.56.75s20.16,21.78,25.39,56.09l2.46-.61c8.58-2.14,15.62-8.57,19.98-16.75h0Z"/>
        <path class="st18" d="M537.57,89.21c-5.1,7.3-7.16,17.7-7.48,28.88,2.53,2.2,5.43,4.13,8.72,5.76,1.48.73,8.93,3.23,14.9,5.19-10.03-39.65,15.75-60.42,15.75-60.42-.59-.45-1.18-.89-1.74-1.32-3.62-.39-15.14.41-30.15,21.9Z"/>
        <path class="st18" d="M545.1,60.79c-7.25-8.08-12.24-12.79-15.89-14.94-9.6-5.66-19.38,2.64-19.54,13.34-.19,12.71,5.22,27.05,7.65,34.01,7.66-25.25,27.78-32.42,27.78-32.42Z"/>
        <path class="st5" d="M575.74,138.32c.7,1.04-3.12,4.32-4.18,6.13l-2.4-3.27c1.18-.23,5.78-4.05,6.58-2.86Z"/>
        <path class="st5" d="M70.17,131.34c-.26-.71-4.07-4.9-4.45-3.96-.37.95,1.91,4.04,1.91,4.04l-2.96,1.15c-1.78,1.75.99,4.85.99,4.85l.12-.08,3.44-2.27s1.21-3.01.95-3.73Z"/>
        <path class="st5" d="M56.36,122.53c-.86.75,3.68,9.43,3.68,9.43l.06-2.78s-2.87-7.4-3.73-6.65Z"/>
        <path class="st5" d="M126.37,155.06s6.33,2.25,6.16,4.17c-.09,1.01-.56,2.64-.56,2.64l3.09,9.35-7.11,1.41s-1.03-6.75-2.5-8.49c-.26-.31-.8-.26-1.24-.63-1.49-1.27-3.47-3.15-3.66-3.8-.81-2.87,5.81-4.64,5.81-4.64h0Z"/>
        <path class="st5" d="M58.56,125.65s.72,4.52,1.46,6.31c.39.94,2.29,4.88,2.29,4.88l.66,9.79,7.34-.86s-2.36-7.08-1.48-9.18c.69-1.65,1.16-5.14,1.13-6.01-.09-2.98-11.41-4.93-11.41-4.93h0Z"/>
        <path class="st4" d="M107.23,163.61s-3.82-4.02-6.89.87c0,0-2.36-1.33-4.02,1.04,0,0-4.27-1.29-5.31,5.1,0,0-2.2-.41-2.49,2.2-.29,2.61,1.04,4.35,1.04,4.35,0,0-1.23.92-.68,3.33.48,2.04,2.17,2.35,2.17,2.35,0,0,.45,3.44,1.95,4.48,1.49,1.04,3.53.54,3.53.54,0,0,.54,1.86,2.28,1.7,1.74-.16,3.9-1.82,5.85-1.08,1.95.75,7.01-.04,7.01-.04,0,0,5.68-2.53,3.98-8.33,0,0,2.99-2.69.37-5.93,0,0,1.91-5.05-1.87-8.04-3.78-2.99-6.93-2.53-6.93-2.53h0Z"/>
        <path class="st5" d="M64.81,305.57s-6.58-.75-7.67-1.29c-1.09-.53-6.61,4.74-5.52,7.38.62,1.49,2.57,1.3,2.57,1.3l1.58-1.54,8.35,1.74.69-7.59Z"/>
        <path class="st5" d="M102.37,333.27s-3.47,5.64-4.41,6.4c-.95.76,1.5,7.99,4.36,8.11,1.61.07,2.26-1.77,2.26-1.77l-.73-2.08,5.11-6.82-6.59-3.84h0Z"/>
        <path class="st4" d="M98.16,339.44s1.99,2.54,3.08,3.54c1.4,1.3,3.2,2.58,3.2,2.58,0,0,2.03,3.69,2.59,4.97,1.24,2.86,2.63,6.05,2.43,7.66-.06.52-1.22,1.06-2.19.76-4.02-1.23-14.29-10.62-15.58-13.14-1.5-2.9,6.48-6.38,6.48-6.38h0Z"/>
        <path class="st18" d="M127.48,253.58c-.37-1.04-.73-2.01-1.08-2.91-4.27.93-9.1,1.96-14.06,3.01l-.6,18.17c0-1.4,3.73,28.98,3.73,28.98,0,0-10.14,20.11-16.74,32.55,2.71,3.38,4.79,4.85,8.71,7.15,10.24-12.26,23.32-33.87,23.88-37.6.32-2.14.61-36.83-3.85-49.35h0Z"/>
        <path class="st10" d="M89.35,258.83c1.16,12.6,3.08,31.66,3.43,38.08-8.15,1.17-27.42,6.96-31.01,6.95-1.36,3.04-2.11,6.73-1.17,9.77.19.6,38,1.8,47.76-4.42,2.55-1.62,3.33-19.02,3.37-37.37l.6-18.17c-8.27,1.76-15.87,3.49-22.99,5.16h0Z"/>
        <path class="st2" d="M116.51,194.29l-9.28,1.4s-6.99.11-8.86.12c-.16,0-7.44,35.47-9.21,48.82-1.77,13.35-.4,15.71-.4,15.71,0,0,12.34,2.77,21.47,1.96,9.5-.84,20.18-5.96,20.18-5.96,0,0-8.37-24.94-9.98-32.95-1.61-8.01-3.92-29.11-3.92-29.11h0Z"/>
        <path class="st14" d="M134.26,167.89s10.16,28.54,9.16,30.56c-1.45,2.94-21.1,8.26-21.1,8.26,0,0,7.43,29.53,10.71,40.8.33,1.14,1.79,8.47,1.79,9.18,0,1.59-6.91,3.6-7.73,3.48-.73-.11-7.99-30.87-11.84-46.06-1.3-5.15-2.31-10.3-5.37-14.64l-2.67-3.8s5.38-1.94,7.79-2.72c3.58-1.16,16.1-3.44,16.1-3.44,0,0-3.79-18.87-4.13-20.7-.09-.49,6.29-2.78,7.29-.92h0Z"/>
        <path class="st14" d="M98.37,195.81s-13.19-19.51-16.86-26.43c-3.01-5.67-9.79-22.7-10.05-23.63-.25-.91-7.88-1.75-10.22-.69-.63.29,6.24,22.94,9.07,30.33,2.61,6.83,11.91,26.71,11.91,26.71,0,0,5.36,12.21,4.52,21.65-1.39,15.68-4.14,38.26-3.47,38.94,4.16,2.62,17.26,2.52,18.27.9,11.16-17.96-3.17-67.79-3.17-67.79Z"/>
        <path class="st5" d="M106.59,190.9l.69,5.12s1.55,7.38-.44,8.8c-1.99,1.42-8.47-9.01-8.47-9.01l.68-12.97,7.54,8.06h0Z"/>
        <path class="st10" d="M98.83,187.04c1.64,4.42,5.56,7.15,8.34,8.2l-.59-4.34-7.54-8.06-.22,4.21h0Z"/>
        <path class="st4" d="M88.45,174.02c0,1.98,1.13,3.58,2.51,3.58s2.51-1.6,2.51-3.58-1.13-3.58-2.51-3.58-2.51,1.6-2.51,3.58Z"/>
        <path class="st4" d="M95.99,166.32c0,1.14,1.37,2.06,3.06,2.06s3.06-.92,3.06-2.06-1.37-2.06-3.06-2.06-3.06.92-3.06,2.06Z"/>
        <path class="st5" d="M103.65,169.21c4.04-1.39,8.35,1.29,8.96,5.45.27,1.81.51,4.08.56,6.57.11,5.98-2.99,11.8-5.71,11.8s-10.23-3.87-10.5-12.36c-.17-5.24,2.45-10,6.69-11.46h0Z"/>
        <path class="st5" d="M98.96,181.34c0,1.32-.88,2.39-1.95,2.39s-1.95-1.07-1.95-2.39.88-2.39,1.95-2.39,1.95,1.07,1.95,2.39Z"/>
        <path class="st4" d="M115.43,166.23c2.81,2.22,3.79,5.6,2.2,7.54-1.59,1.94-5.16,1.72-7.97-.51-2.81-2.22-3.79-5.6-2.2-7.54,1.59-1.94,5.17-1.71,7.97.51h0Z"/>
        <path class="st4" d="M108.09,168.05c0,.96-1.17,1.75-2.61,1.75s-2.61-.78-2.61-1.75,1.17-1.75,2.61-1.75,2.61.78,2.61,1.75Z"/>
        <path class="st4" d="M115.85,175.48c0,1.24-1,2.25-2.22,2.25s-2.22-1.01-2.22-2.25,1-2.25,2.22-2.25,2.22,1.01,2.22,2.25Z"/>
        <path class="st4" d="M57.43,304.38s-1.46,2.87-1.91,4.29c-.59,1.82-.99,3.99-.99,3.99,0,0-2.49,3.4-3.41,4.45-2.08,2.33-4.61,5.09-6.15,5.59-.49.16-1.9-.26-1.89-1.35.05-4.2,4.09-17.88,5.82-20.12,2-2.58,8.53,3.17,8.53,3.17h0Z"/>
        <path class="st10" d="M60.2,128.15s.82,2.02,2.78,3.29c1.96,1.28,6.29,1.58,6.29,1.58l-9.07-4.87Z"/>
        <path class="st16" d="M181.68,206.38c-15.5-8.1-27.01-16.83-26.1-19.76-1.77,4.59,7.59,17.43,23.09,25.52,15.5,8.1,31.39,8.45,34.15,4.37-1.89,2.41-15.64-2.04-31.14-10.13Z"/>
        <path class="st21" d="M108.71,143.11c3.33,1.9,8.51,4.79,8.5,4.79,18.46,11.11,32.06,23.83,44.99,38.67,1,1.14-.36.95-1.51,1.94-1.12.97-2.8.88-3.81-.19-1.57-1.66-4.56-4.88-7.03-7.2-1.18-1.04-14.41-14.67-35.48-26.24-2.14-1.18-2.16-1.18-2.15-1.17-5.96-3.09,5.85,2.58-93.01-44.31-2.92-1.39-4.16-4.87-2.78-7.78,1.42-2.98,5.05-3.83,8-2.31.37.19,89.71,46.46,84.28,43.81h0Z"/>
        <path class="st21" d="M186.89,196.43c-15.74-8.22-29.67-12.68-31.22-10.01-.03.07-.07.14-.09.21-.9,2.93,10.6,11.67,26.1,19.76,15.5,8.1,29.25,12.55,31.14,10.13.04-.06.08-.13.12-.19,1.31-2.79-10.31-11.68-26.05-19.89h0Z"/>
        <path class="st2" d="M181.68,206.38c12.68,6.62,24.18,10.8,28.99,10.79-.56-1.65-5.71-3.31-5.71-3.31,0,0-3.42-4.76-6.89-6.6-3.48-1.84-8.76-2.78-8.76-2.78,0,0-5.07-3.52-9.03-3.67-2.01-.08-4.41.62-6.27,1.32,2.41,1.41,4.98,2.84,7.68,4.25h0Z"/>
        <path class="st2" d="M184.4,202.22c-.11,1.35-1.49,2.34-3.07,2.21-1.59-.13-2.79-1.32-2.68-2.68.11-1.35,1.49-2.34,3.07-2.21,1.59.13,2.79,1.33,2.68,2.68Z"/>
        <path class="st2" d="M191.57,204.28c-.09,1.02-1.11,1.76-2.3,1.67-1.19-.1-2.08-1-1.99-2.02.08-1.02,1.11-1.76,2.3-1.67,1.19.1,2.08,1,1.99,2.02h0Z"/>
        <path class="st2" d="M173.73,200.02c-.83-.07-1.6.21-2.1.7,1.34.82,2.74,1.64,4.19,2.47.15-.24.24-.52.26-.82.1-1.18-.96-2.23-2.36-2.35Z"/>
        <path class="st2" d="M202.15,209.13c-.03,1.04-.9,1.87-1.94,1.84-1.05-.03-1.87-.9-1.85-1.94.03-1.04.9-1.87,1.94-1.84,1.04.03,1.87.9,1.85,1.94Z"/>
        <path class="st2" d="M206.04,213.35c-.06.8-.68,1.41-1.36,1.36-.69-.06-1.19-.76-1.13-1.56.06-.8.68-1.41,1.36-1.36.69.06,1.19.76,1.13,1.56Z"/>
        <path class="st2" d="M211.51,217.04c-.08,1.02-1.03,1.77-2.12,1.68s-1.91-.98-1.83-2.01c.09-1.02,1.03-1.77,2.12-1.68,1.09.09,1.91.98,1.83,2.01Z"/>
        <path class="st2" d="M208.52,215.93c-.08,1.01-1.04,1.76-2.13,1.68-1.09-.09-1.91-.98-1.83-2,.08-1.01,1.04-1.76,2.13-1.68,1.09.09,1.92.99,1.83,2Z"/>
        <path class="st2" d="M213.21,217.2c0,.62-.48,1.12-1.07,1.12s-1.07-.5-1.07-1.12.48-1.12,1.07-1.12,1.07.5,1.07,1.12Z"/>
        <path class="st5" d="M123.18,160.12c.25-.16,2.78-.87,2.42-1.86-.4-1.1-3.18-.45-4.96.24.33.94,1.13,2.52,2.54,1.62Z"/>
        <path class="st5" d="M133.87,158.36c-.05-.06-.92-1.11-.71-1.51.05-.1,0-.43-.14-.68-.02-.03-.6-.54-.29-.9.15-.17.04-.88-.07-.99-.75-.71-2.91.36-2.91.36,0,0-4.18,1.58-2.98,2.6.2.16.58.2,1.07.14-.82.43-1.42.94-.9,1.41.24.22.8.22,1.49.11-.8.39-1.36.88-.87,1.34.46.44,2.24.14,3.79-.35l2.5-.73c.13-.35.13-.68.01-.81h0Z"/>
        <path class="st5" d="M125.83,160.35c-.93-.56-2.45-.58-2.45-.58l-1.01,1.01,4.85,1.96s-.46-1.83-1.38-2.39Z"/>
      </g>
    </g>
  </g>
</svg>