<svg width="126" height="162" viewBox="0 0 126 162" fill="none" xmlns="http://www.w3.org/2000/svg">
<g clip-path="url(#clip0_263_80)">
<path d="M119.496 145.432C117.527 142.066 113.922 140.002 110.02 140.002L108.738 134.424H97.3844V0H94.5971V134.405H83.2438L81.9616 139.983C78.0595 139.983 74.4547 142.048 72.485 145.413L65.9814 161.981H125.981L119.478 145.413L119.496 145.432Z" fill="#353535"/>
</g>
<g clip-path="url(#clip1_263_80)">
<path d="M53.4965 108.407C51.5268 105.036 47.922 102.969 44.0198 102.969L42.7377 97.3816H31.3844V0H28.5971V97.3629H17.2438L15.9616 102.95C12.0595 102.95 8.45466 105.017 6.48501 108.388L-0.0185547 124.981H59.9814L53.4779 108.388L53.4965 108.407Z" fill="#353535"/>
</g>
<defs>
<clipPath id="clip0_263_80">
<rect width="60" height="162" fill="white" transform="translate(66)"/>
</clipPath>
<clipPath id="clip1_263_80">
<rect width="60" height="125" fill="white"/>
</clipPath>
</defs>
</svg>
