<svg width="80" height="86" viewBox="0 0 80 86" fill="none" xmlns="http://www.w3.org/2000/svg">
<g clip-path="url(#clip0_295_121)">
<circle cx="30" cy="22" r="10" fill="#D5755F"/>
<path d="M28.406 38.6193C28.3334 38.6193 28.2989 38.6011 28.2789 38.5884L28.248 38.5684L20.9685 34.7008L13.9197 38.5229C13.6599 38.6066 13.5927 38.6066 13.3639 38.6066C13.264 38.6066 13.066 38.512 12.8917 38.4265C12.73 38.3029 12.5993 38.0574 12.6592 37.8174L12.6665 37.7883L14.0014 29.6205L8.09498 24.002C7.87158 23.7747 7.80257 23.4929 7.85342 23.3419L7.8625 23.3147L7.86977 23.2874C7.90791 23.1328 7.98782 22.9565 8.43462 22.8383L16.5169 21.6618L20.222 14.3941L20.2311 14.3723C20.3201 14.165 20.5962 14.0723 20.8323 14.0723C21.0684 14.0723 21.3445 14.165 21.4335 14.3723L21.4425 14.3941L25.1459 21.6618L33.2281 22.8383C33.6749 22.9583 33.7548 23.1328 33.793 23.2874C33.862 23.5638 33.813 23.822 33.6713 23.9165L33.615 23.9547L27.8012 29.626L29.1361 37.7883L29.1434 37.8174C29.207 38.0702 29.0562 38.3302 28.8819 38.4465C28.7202 38.5538 28.5422 38.6193 28.406 38.6193ZM10.249 24.022L15.3945 28.995C15.5452 29.146 15.6505 29.4242 15.6324 29.5151L15.616 29.566L14.3628 36.741L20.7088 33.2917H20.7106C20.7487 33.2898 20.7941 33.2898 20.8323 33.2898C21.0793 33.2898 21.0829 33.2898 21.2119 33.3535L27.5796 36.7192L26.3282 29.5623L26.3119 29.5114C26.2937 29.4241 26.3991 29.146 26.5589 28.9859L31.6952 24.022L24.5501 22.9492H24.4956C24.4157 22.9365 24.2159 22.7601 24.1596 22.6455L20.974 16.267L17.7647 22.6928L17.7483 22.7419C17.7065 22.8656 17.5612 22.9492 17.4504 22.9492H17.396L10.2509 24.022H10.249Z" fill="white"/>
<path d="M0.682907 85.9998C0.236111 85.9998 0 85.7634 0 85.3161V49.9102C0 49.4629 0.236111 49.2266 0.682907 49.2266H15.6179C16.0647 49.2266 16.3008 49.4629 16.3008 49.9102V85.3161C16.3008 85.7816 15.8939 85.9998 15.6179 85.9998H0.682907ZM1.36581 84.6324H14.935V50.5939H1.36581V84.6324Z" fill="white"/>
<path d="M15.6179 85.9996C15.1711 85.9996 14.935 85.7632 14.935 85.3159C14.935 84.8686 15.1711 84.6322 15.6179 84.6322H29.8699V57.5051H15.6179C15.1711 57.5051 14.935 57.2687 14.935 56.8214C14.935 56.3741 15.1711 56.1377 15.6179 56.1377H30.5528C30.9996 56.1377 31.2357 56.3741 31.2357 56.8214V85.3141C31.2357 85.7614 30.9996 85.9978 30.5528 85.9978H15.6179V85.9996Z" fill="white"/>
<path d="M30.5528 85.9997C30.106 85.9997 29.8699 85.7634 29.8699 85.3161C29.8699 84.8687 30.106 84.6324 30.5528 84.6324H44.8049V64.2765H30.5528C30.106 64.2765 29.8699 64.0402 29.8699 63.5929C29.8699 63.1456 30.106 62.9092 30.5528 62.9092H45.4878C45.9346 62.9092 46.1707 63.1456 46.1707 63.5929V85.3161C46.1707 85.7634 45.9346 85.9997 45.4878 85.9997H30.5528Z" fill="white"/>
<path d="M45.4878 85.9999C45.041 85.9999 44.8049 85.7635 44.8049 85.3162C44.8049 84.8689 45.041 84.6325 45.4878 84.6325H59.7398V71.048H45.4878C45.041 71.048 44.8049 70.8116 44.8049 70.3643C44.8049 69.917 45.041 69.6807 45.4878 69.6807H60.4227C60.8695 69.6807 61.1056 69.917 61.1056 70.3643V85.3162C61.1056 85.7635 60.8695 85.9999 60.4227 85.9999H45.4878Z" fill="white"/>
<path d="M60.4227 85.9999C59.9759 85.9999 59.7398 85.7635 59.7398 85.3162C59.7398 84.8689 59.9759 84.6325 60.4227 84.6325H74.8164V77.8176H60.4227C59.9759 77.8176 59.7398 77.5812 59.7398 77.1339C59.7398 76.6866 59.9759 76.4502 60.4227 76.4502H75.4993C75.9461 76.4502 76.1822 76.6866 76.1822 77.1339V85.3144C76.1822 85.7617 75.9461 85.9981 75.4993 85.9981H60.4227V85.9999Z" fill="white"/>
<path d="M70.4266 74.9974C68.5395 74.9974 66.8758 73.601 66.6379 71.8208L66.6252 71.7263L58.9752 53.256L55.0884 57.3417L58.1706 66.7478C58.4103 67.8624 58.2669 68.7679 57.7038 69.6771C57.0772 70.548 56.2599 71.0863 55.4008 71.1935C55.2228 71.2154 55.0448 71.2263 54.8687 71.2263C53.2159 71.2263 51.821 70.2317 51.3996 68.7534L51.3869 68.7079L46.7791 58.0818V57.9745L46.741 57.8618C46.2742 56.4599 46.1834 54.6852 46.4849 52.8633C46.8282 51.1523 47.3985 49.7322 47.9742 49.1558L54.5763 42.3953L54.2784 41.9117C48.7334 32.9238 47.9052 24.9488 47.9052 20.994V20.1976C48.1649 18.3738 49.3818 16.7555 51.1672 15.8609L51.1835 15.8518C52.1298 15.3464 53.1287 15.0918 54.1531 15.0918C55.1774 15.0918 56.1764 15.3482 57.1226 15.8518C61.2219 17.9956 66.6288 22.1922 71.965 27.3689C77.2284 32.4765 79.8111 35.9822 79.9909 36.8786C80.1017 38.5878 79.3752 39.9625 77.9931 40.6534C77.5118 40.8953 76.9959 41.0171 76.4583 41.0171C75.5139 41.0171 74.5822 40.6261 73.8993 39.9443L66.5562 32.4093L74.3497 71.4226V71.7227C74.09 73.4719 72.2683 74.9956 70.4266 74.9956V74.9974ZM68.1599 71.4735C68.3652 72.7045 69.4004 73.6319 70.5664 73.6319C71.5636 73.6319 72.7659 72.8609 72.973 71.6136L72.9948 71.4808L64.6528 30.2855L64.6491 30.2691C64.5892 30.0327 64.7163 29.6727 64.9742 29.5454C65.0669 29.4982 65.1704 29.4745 65.283 29.4745C65.4882 29.4745 65.6917 29.5545 65.8261 29.6909L74.8401 38.8551C75.2887 39.3042 75.839 39.5388 76.4365 39.5388C76.7998 39.5388 77.1721 39.4479 77.5136 39.277C78.438 38.8133 78.9012 37.9987 78.7504 37.0968L78.7341 36.9986L78.6923 36.9095C77.6498 34.6749 66.1112 21.9795 56.5396 16.9701C55.8022 16.561 55.023 16.3537 54.2239 16.3537C53.4248 16.3537 52.6656 16.5555 51.9373 16.9519C50.9129 17.3792 49.7251 18.4793 49.4199 20.3103L49.4109 20.3703V20.994C49.4109 24.1124 50.0665 32.4111 56.1437 42.1153L56.16 42.1408L56.1782 42.1644C56.3743 42.4263 56.2781 42.7335 56.1055 42.9063L49.0549 50.1049C48.6644 50.4959 48.2103 52.1814 48.016 53.1506C47.7254 54.4634 47.8325 56.0035 48.3211 57.4727L48.332 57.5054L52.9344 67.9751V68.1042L52.987 68.2333C53.3666 69.1825 54.3165 69.8189 55.3518 69.8189C55.9348 69.8189 56.3653 69.388 56.7103 69.0425L56.7939 68.9588L56.8466 68.8534C57.0064 68.5334 57.2479 68.0479 57.0427 67.2224L57.0354 67.1951L53.7862 57.4363C53.7372 57.2872 53.7862 56.9799 53.9533 56.7053L58.8372 51.5359L63.6211 46.6065C63.7501 46.4774 63.9136 46.4047 64.0861 46.4047C64.2586 46.4047 64.4221 46.4774 64.5583 46.6156C64.8362 46.8938 64.8362 47.2829 64.5583 47.5611L60.1285 51.996L68.0273 71.1172C68.0582 71.2663 68.1163 71.3845 68.1563 71.4626C68.1563 71.4645 68.1581 71.4681 68.1599 71.4699V71.4735Z" fill="white"/>
<path d="M45.4878 14.0609C41.6809 14.0609 38.4644 10.8407 38.4644 7.02954C38.4644 3.21839 41.6809 0 45.4878 0C49.2946 0 52.5112 3.2202 52.5112 7.03135C52.5112 10.8425 49.2946 14.0627 45.4878 14.0627V14.0609ZM45.4878 1.36736C42.4201 1.36736 39.8302 3.96207 39.8302 7.03135C39.8302 10.1006 42.4219 12.6954 45.4878 12.6954C48.5536 12.6954 51.1454 10.1006 51.1454 7.03135C51.1454 3.96207 48.5536 1.36736 45.4878 1.36736Z" fill="white"/>
</g>
<defs>
<clipPath id="clip0_295_121">
<rect width="80" height="86" fill="white"/>
</clipPath>
</defs>
</svg>
