<svg width="32" height="33" viewBox="0 0 32 33" fill="none" xmlns="http://www.w3.org/2000/svg">
<g clip-path="url(#clip0_121_158)">
<path d="M16.8027 18.4331C20.7629 18.4331 23.9732 15.2553 23.9732 11.3352C23.9732 7.41515 20.7629 4.2373 16.8027 4.2373C12.8425 4.2373 9.63211 7.41515 9.63211 11.3352C9.63211 15.2553 12.8425 18.4331 16.8027 18.4331Z" fill="#FFC033"/>
<path fill-rule="evenodd" clip-rule="evenodd" d="M14.2341 4.87308C9.54291 4.87308 5.74358 8.63392 5.74358 13.2776V15.2904C5.74358 17.3209 5.2263 19.3161 4.20958 21.0994L2.85395 23.5007C2.35451 24.3835 2.99665 25.4782 4.01337 25.4782H24.437C25.4537 25.4782 26.0959 24.3835 25.5964 23.5007L24.2408 21.0994C23.2419 19.3161 22.7068 17.3209 22.7068 15.2904H25.3824C25.3824 16.8795 25.7926 18.4333 26.5775 19.8105L27.9331 22.2118C29.4314 24.8602 27.4872 28.1267 24.437 28.1267H4.01337C0.945364 28.1267 -0.981057 24.8602 0.51727 22.2118L1.8729 19.8105C2.65774 18.4333 3.068 16.8795 3.068 15.2904V13.2776C3.05016 7.18609 8.06242 2.22461 14.2341 2.22461C16.3211 2.22461 18.301 2.78962 19.9777 3.79604L18.6042 6.07373C17.3378 5.3145 15.8395 4.89074 14.2341 4.89074V4.87308Z" fill="black"/>
<path fill-rule="evenodd" clip-rule="evenodd" d="M8.90076 26.3782C9.61425 26.2193 10.3277 26.6783 10.4883 27.3846C10.8629 29.0796 12.3969 30.3509 14.2163 30.3509C16.0357 30.3509 17.5697 29.0796 17.9442 27.3846C18.1048 26.6783 18.8183 26.2193 19.5318 26.3782C20.2452 26.5371 20.709 27.2433 20.5485 27.9496C19.9063 30.8276 17.3199 32.9817 14.2163 32.9817C11.1126 32.9817 8.52618 30.8276 7.88404 27.9496C7.72351 27.2433 8.18727 26.5371 8.90076 26.3782Z" fill="black"/>
<path fill-rule="evenodd" clip-rule="evenodd" d="M19.5853 1.99472C21.1193 -0.671416 25.0078 -0.671416 26.5596 1.99472L31.4649 10.5051C32.9989 13.1536 31.0546 16.4554 27.9866 16.4554H18.1583C15.0725 16.4554 13.146 13.1536 14.68 10.5051L19.5853 1.99472ZM24.223 3.31895C23.7057 2.43613 22.4214 2.43613 21.9041 3.31895L16.9989 11.8294C16.4816 12.7122 17.1416 13.8069 18.1583 13.8069H27.9866C29.0212 13.8069 29.6633 12.7122 29.146 11.8294L24.2408 3.31895H24.223Z" fill="black"/>
<path fill-rule="evenodd" clip-rule="evenodd" d="M23.9376 10.3992C24.4548 10.9113 24.4548 11.7588 23.9376 12.2708C23.4203 12.8005 22.5641 12.8005 22.0468 12.2708C21.5295 11.7411 21.5295 10.9113 22.0468 10.3992C22.5641 9.86953 23.4203 9.86953 23.9376 10.3992Z" fill="black"/>
<path fill-rule="evenodd" clip-rule="evenodd" d="M22.9922 5.17285C23.7235 5.17285 24.33 5.77317 24.33 6.49709V8.12149C24.33 8.8454 23.7235 9.44572 22.9922 9.44572C22.2609 9.44572 21.6544 8.8454 21.6544 8.12149V6.49709C21.6544 5.77317 22.2609 5.17285 22.9922 5.17285Z" fill="black"/>
</g>
<defs>
<clipPath id="clip0_121_158">
<rect width="32" height="33" fill="white"/>
</clipPath>
</defs>
</svg>
