<svg width="80" height="80" viewBox="0 0 80 80" fill="none" xmlns="http://www.w3.org/2000/svg">
<g clip-path="url(#clip0_295_171)">
<ellipse cx="56" cy="20.5316" rx="10" ry="9.85675" fill="#D5755F"/>
<path d="M0.584343 79.9995C0.202801 79.9995 0 79.7978 0 79.4133V52.7547C0 52.372 0.201083 52.1685 0.584343 52.1685H4.70568V43.9495L2.54877 43.2875L2.53158 43.2823C2.33909 43.234 2.16207 43.0047 2.16207 42.803C2.16207 42.5875 2.36831 42.3116 2.63642 42.1633L13.4382 38.4668L13.4794 38.4461C13.4914 38.4392 13.5413 38.4237 13.6169 38.4237C13.6925 38.4237 13.7424 38.4409 13.7544 38.4461L13.7871 38.4633L23.7759 42.1892L23.8137 42.1978C23.9976 42.2444 24.1832 42.4668 24.1832 42.8047C24.1832 43.0064 24.0079 43.2358 23.8137 43.284L23.7879 43.2909L21.5124 44.0513V52.1685H27.3369V25.3306C27.3369 25.0064 27.4779 24.8151 27.7546 24.7599L28.473 24.6185L25.1903 12.0323L24.6868 12.0064C22.712 11.9064 21.1068 10.2151 21.1068 8.23575C21.1068 6.25644 22.8306 4.46161 24.869 4.46161C26.9073 4.46161 28.6311 6.19092 28.6311 8.23575C28.6311 9.43747 28.0622 10.5771 27.1084 11.2823L26.4828 11.7444L28.3217 13.6978C29.2979 14.6771 30.4752 15.1944 31.7281 15.1944C31.8776 15.1944 32.0306 15.1875 32.1818 15.172C33.6616 15.0237 34.8578 14.2771 35.7377 12.9547L39.2438 7.55299L38.5082 7.22368C37.147 6.61334 36.2344 5.22713 36.2344 3.77023C36.2344 1.72368 37.9582 -0.00390625 39.9966 -0.00390625C42.0349 -0.00390625 43.7587 1.7254 43.7587 3.77023C43.7587 5.43058 42.712 6.87713 41.1567 7.36851L40.2973 7.64092L43.8687 13.2013C44.6679 14.484 46.0445 15.2892 47.4641 15.303C47.6033 15.3168 47.7443 15.322 47.8835 15.322C49.1364 15.322 50.3137 14.8047 51.2898 13.8254L53.5035 11.4823L52.9879 11.0082C52.199 10.2823 51.7453 9.27196 51.7453 8.23575C51.7453 6.1892 53.4691 4.46161 55.5074 4.46161C57.5458 4.46161 59.2696 6.19092 59.2696 8.23575C59.2696 10.2806 57.5458 12.0099 55.5074 12.0099C55.3957 12.0099 55.2788 12.0047 55.1568 11.9926L54.5742 11.9357L51.2039 24.7323L52.0856 24.7444C52.4585 24.7495 52.6579 24.9513 52.6579 25.3289V41.453H59.1183V33.3616L56.9614 32.6995L56.9442 32.6961C56.7517 32.6478 56.5747 32.4185 56.5747 32.2168C56.5747 32.0013 56.781 31.7254 57.0491 31.5771L67.8508 27.8806L67.8921 27.8599C67.9041 27.853 67.9539 27.8375 68.0296 27.8375C68.1052 27.8375 68.155 27.8547 68.1671 27.8599L68.1997 27.8771L78.1885 31.603L78.2263 31.6116C78.4102 31.6582 78.5959 31.8806 78.5959 32.2185C78.5959 32.4202 78.4206 32.6495 78.2263 32.6978L78.2006 32.7047L75.9251 33.4651V41.4547H79.4105C79.792 41.4547 79.9948 41.6564 79.9948 42.0409V79.4133C79.9948 79.7961 79.7938 79.9995 79.4105 79.9995H0.584343ZM52.6631 78.8271H78.8313V42.6254H52.6631V78.8271ZM28.5056 78.8271H51.4961V25.9168H28.5056V78.8271ZM1.16869 78.8271H27.3369V53.3392H1.16869V78.8271ZM5.87265 52.1685H20.3437V44.4426L13.9503 46.5806H13.7716L13.6255 46.653C13.6049 46.6633 13.5757 46.6754 13.5516 46.6754C13.5275 46.6754 13.4983 46.6633 13.4777 46.653L13.4261 46.6271L5.87093 44.3082V52.1685H5.87265ZM4.72802 42.7168L13.5602 45.4426L21.7152 42.7151L13.5619 39.6478L4.72802 42.7151V42.7168ZM60.2922 41.4547H74.7633V33.8564L68.4764 35.9582C68.4059 35.9444 68.3355 35.9375 68.265 35.9375C68.1086 35.9375 67.9849 35.972 67.9093 35.9944H67.6944L60.2922 33.7237V41.4564V41.4547ZM59.0874 31.984L67.978 34.7289L68.1894 34.6599L76.1897 31.984L67.9814 29.0668L59.0874 31.984ZM29.7929 24.7444H50.0473L52.8487 14.2409L51.3019 15.3271C50.3257 16.0116 49.1656 16.3737 47.9453 16.3737C47.7752 16.3737 47.6016 16.3668 47.4315 16.353C45.6836 16.2426 44.0681 15.2857 42.987 13.7237L39.8677 8.87196L36.8772 13.6099C35.8838 15.1599 34.3456 16.1099 32.4276 16.3547C32.2609 16.3685 32.0925 16.3754 31.9275 16.3754C30.7072 16.3754 29.5454 16.0133 28.5709 15.3289L27.0327 14.2495L29.7946 24.7478L29.7929 24.7444ZM55.5126 5.63575C54.1067 5.63575 52.9174 6.82713 52.9174 8.2392C52.9174 9.65127 54.105 10.8426 55.5126 10.8426C56.9202 10.8426 58.1078 9.65127 58.1078 8.2392C58.1078 6.82713 56.9202 5.63575 55.5126 5.63575ZM24.869 5.63575C23.4631 5.63575 22.2738 6.82713 22.2738 8.2392C22.2738 9.65127 23.4614 10.8426 24.869 10.8426C26.2765 10.8426 27.4641 9.65127 27.4641 8.2392C27.4641 6.82713 26.3247 5.63575 24.869 5.63575ZM40 1.17196C38.5941 1.17196 37.4048 2.36334 37.4048 3.7754C37.4048 5.18747 38.5924 6.37885 40 6.37885C41.4076 6.37885 42.5952 5.18747 42.5952 3.7754C42.5952 2.36334 41.4557 1.17196 40 1.17196Z" fill="white"/>
</g>
<defs>
<clipPath id="clip0_295_171">
<rect width="80" height="80" fill="white"/>
</clipPath>
</defs>
</svg>
