<?xml version="1.0" encoding="UTF-8"?>
<svg id="Layer_1" xmlns="http://www.w3.org/2000/svg" version="1.1" viewBox="0 0 465.48 464">
  <!-- Generator: Adobe Illustrator 29.8.2, SVG Export Plug-In . SVG Version: 2.1.1 Build 3)  -->
  <defs>
    <style>
      .st0 {
        fill: #e55151;
      }
    </style>
  </defs>
  <circle class="st0" cx="144.7" cy="47.79" r="15.1"/>
  <circle class="st0" cx="232.74" cy="21.89" r="15.1"/>
  <circle class="st0" cx="323" cy="47.79" r="15.1"/>
  <path class="st0" d="M170.73,145.6l-19.96-74.7s17.85,21.57,37.75,21.57,42.61-48.54,42.61-48.54c0,0,22.25,48.27,46.11,48.27s36.4-23.19,36.4-23.19l-19.15,76.58h-123.78Z"/>
  <path d="M3.4,464c-2.22,0-3.4-1.17-3.4-3.4v-154.62c0-2.22,1.17-3.4,3.4-3.4h23.98v-47.67l-12.55-3.84-.1-.03c-1.12-.28-2.15-1.61-2.15-2.78,0-1.25,1.2-2.85,2.76-3.71l62.85-21.44.24-.12c.07-.04.36-.13.8-.13s.73.1.8.13l.19.1,58.12,21.61.22.05c1.07.27,2.15,1.56,2.15,3.52,0,1.17-1.02,2.5-2.15,2.78l-.15.04-13.24,4.41v47.08h33.89v-155.66c0-1.88.82-2.99,2.43-3.31l4.18-.82-19.1-73-2.93-.15c-11.49-.58-20.83-10.39-20.83-21.87s10.03-21.89,21.89-21.89,21.89,10.03,21.89,21.89c0,6.97-3.31,13.58-8.86,17.67l-3.64,2.68,10.7,11.33c5.68,5.68,12.53,8.68,19.82,8.68.87,0,1.76-.04,2.64-.13,8.61-.86,15.57-5.19,20.69-12.86l20.4-31.33-4.28-1.91c-7.92-3.54-13.23-11.58-13.23-20.03,0-11.87,10.03-21.89,21.89-21.89s21.89,10.03,21.89,21.89c0,9.63-6.09,18.02-15.14,20.87l-5,1.58,20.78,32.25c4.65,7.44,12.66,12.11,20.92,12.19.81.08,1.63.11,2.44.11,7.29,0,14.14-3,19.82-8.68l12.88-13.59-3-2.75c-4.59-4.21-7.23-10.07-7.23-16.08,0-11.87,10.03-21.89,21.89-21.89s21.89,10.03,21.89,21.89-10.03,21.89-21.89,21.89c-.65,0-1.33-.03-2.04-.1l-3.39-.33-19.61,74.22,5.13.07c2.17.03,3.33,1.2,3.33,3.39v93.52h37.59v-46.93l-12.55-3.84-.1-.02c-1.12-.28-2.15-1.61-2.15-2.78,0-1.25,1.2-2.85,2.76-3.71l62.85-21.44.24-.12c.07-.04.36-.13.8-.13s.73.1.8.13l.19.1,58.12,21.61.22.05c1.07.27,2.15,1.56,2.15,3.52,0,1.17-1.02,2.5-2.15,2.78l-.15.04-13.24,4.41v46.34h20.28c2.22,0,3.4,1.17,3.4,3.4v216.76c0,2.22-1.17,3.4-3.4,3.4H3.4ZM306.42,457.2h152.26v-209.97h-152.26v209.97ZM165.86,457.2h133.77V150.32h-133.77v306.88ZM6.8,457.2h152.26v-147.83H6.8v147.83ZM34.17,302.58h84.2v-44.81l-37.2,12.4h-1.04l-.85.42c-.12.06-.29.13-.43.13s-.31-.07-.43-.13l-.3-.15-43.96-13.45v45.59ZM27.51,247.76l51.39,15.81,47.45-15.82-47.44-17.79-51.4,17.79ZM350.81,240.44h84.2v-44.07l-36.58,12.19c-.41-.08-.82-.12-1.23-.12-.91,0-1.63.2-2.07.33h-1.25l-43.07-13.17v44.85ZM343.8,185.51l51.73,15.92,1.23-.4,46.55-15.52-47.76-16.92-51.75,16.92ZM173.35,143.52h117.85l16.3-60.92-9,6.3c-5.68,3.97-12.43,6.07-19.53,6.07-.99,0-2-.04-2.99-.12-10.17-.64-19.57-6.19-25.86-15.25l-18.15-28.14-17.4,27.48c-5.78,8.99-14.73,14.5-25.89,15.92-.97.08-1.95.12-2.91.12-7.1,0-13.86-2.1-19.53-6.07l-8.95-6.26,16.07,60.89ZM323,32.69c-8.18,0-15.1,6.91-15.1,15.1s6.91,15.1,15.1,15.1,15.1-6.91,15.1-15.1-6.91-15.1-15.1-15.1ZM144.7,32.69c-8.18,0-15.1,6.91-15.1,15.1s6.91,15.1,15.1,15.1,15.1-6.91,15.1-15.1-6.63-15.1-15.1-15.1ZM232.74,6.8c-8.18,0-15.1,6.91-15.1,15.1s6.91,15.1,15.1,15.1,15.1-6.91,15.1-15.1-6.63-15.1-15.1-15.1Z"/>
</svg>