<svg width="32" height="32" viewBox="0 0 32 32" fill="none" xmlns="http://www.w3.org/2000/svg">
<g clip-path="url(#clip0_121_167)">
<path d="M21.9515 26.2319C25.0955 26.2319 27.6442 23.6055 27.6442 20.3657C27.6442 17.1259 25.0955 14.4995 21.9515 14.4995C18.8075 14.4995 16.2588 17.1259 16.2588 20.3657C16.2588 23.6055 18.8075 26.2319 21.9515 26.2319Z" fill="#68C4F2"/>
<path d="M9.63755 15.7974C12.7816 15.7974 15.3303 13.171 15.3303 9.93115C15.3303 6.69133 12.7816 4.06494 9.63755 4.06494C6.49354 4.06494 3.94482 6.69133 3.94482 9.93115C3.94482 13.171 6.49354 15.7974 9.63755 15.7974Z" fill="#67F4A0"/>
<path d="M30.5731 25.6C31.5081 23.9945 31.9993 22.1683 31.9993 20.2834C31.9993 14.5752 27.4925 9.93103 21.9531 9.93103C21.3119 9.93103 20.6915 10.0152 20.0845 10.1338C19.9694 4.52759 15.5161 0 10.0476 0C4.57908 0 0 4.64414 0 10.3524C0 12.2372 0.491237 14.0634 1.42619 15.669L0.0414941 20.6621C-0.0783034 21.0938 0.066926 21.5572 0.409587 21.8338C0.602334 21.9897 0.835906 22.069 1.07015 22.069C1.25219 22.069 1.43623 22.0214 1.60154 21.9234L5.54616 19.6007C6.94357 20.3255 8.48755 20.7055 10.0469 20.7055C10.6861 20.7055 11.3105 20.6372 11.9168 20.5193C12.04 26.1179 16.4892 30.6366 21.9524 30.6366C23.5118 30.6366 25.0544 30.2559 26.4532 29.5317L30.3978 31.8545C30.5624 31.9517 30.7471 32 30.9292 32C31.1634 32 31.397 31.9207 31.5897 31.7648C31.9324 31.4876 32.0783 31.0241 31.9578 30.5931L30.5731 25.6ZM10.0463 18.4979C8.65755 18.4979 7.28222 18.1131 6.07153 17.3848C5.74158 17.1862 5.33266 17.1841 5.00071 17.3807L2.82294 18.6628L3.61735 15.7993C3.70435 15.4869 3.65282 15.1517 3.47681 14.8814C2.60275 13.5393 2.14163 11.9738 2.14163 10.3531C2.14163 5.86069 5.68804 2.20759 10.0463 2.20759C14.4045 2.20759 17.9522 5.86207 17.9522 10.3531C17.9522 14.8441 14.4058 18.4986 10.0463 18.4986V18.4979ZM28.382 25.7303L29.1764 28.5938L26.9986 27.3117C26.834 27.2145 26.6506 27.1662 26.4672 27.1662C26.2838 27.1662 26.0938 27.2159 25.9278 27.3166C24.7164 28.0448 23.3418 28.4297 21.9531 28.4297C17.5935 28.4297 14.0471 24.7752 14.0471 20.2841C14.0471 20.1317 14.0632 19.9828 14.0719 19.8331C17.0153 18.5 19.2292 15.7593 19.8897 12.4366C20.5483 12.2503 21.237 12.1386 21.9524 12.1386C26.312 12.1386 29.857 15.7931 29.857 20.2841C29.857 21.9048 29.3952 23.471 28.5219 24.8124C28.3465 25.0828 28.295 25.4179 28.3813 25.7303H28.3826H28.382ZM9.63734 4.41379C6.68524 4.41379 4.28326 6.88897 4.28326 9.93103C4.28326 12.9731 6.68524 15.4483 9.63734 15.4483C10.7262 15.4483 11.7382 15.1076 12.5854 14.529L13.1637 15.1248C13.3725 15.34 13.6469 15.4483 13.9206 15.4483C14.1943 15.4483 14.4687 15.34 14.6775 15.1248C15.0965 14.6931 15.0965 13.9959 14.6775 13.5648L14.0993 12.969C14.6601 12.0959 14.9914 11.0531 14.9914 9.93103C14.9914 6.88897 12.5894 4.41379 9.63734 4.41379ZM12.5272 11.349L11.4651 10.2545C11.0461 9.82276 10.3695 9.82276 9.95123 10.2545C9.53294 10.6862 9.53227 11.3834 9.95123 11.8145L11.0133 12.909C10.5944 13.1152 10.1313 13.2414 9.63734 13.2414C7.86648 13.2414 6.4249 11.7559 6.4249 9.93103C6.4249 8.10621 7.86648 6.62069 9.63734 6.62069C11.4082 6.62069 12.8498 8.10621 12.8498 9.93103C12.8498 10.4407 12.7287 10.9172 12.5272 11.349ZM26.7704 17.6552C26.7704 18.2641 26.2905 18.7586 25.6996 18.7586H21.4163C20.8254 18.7586 20.3455 18.2641 20.3455 17.6552C20.3455 17.0462 20.8254 16.5517 21.4163 16.5517H25.6996C26.2905 16.5517 26.7704 17.0462 26.7704 17.6552ZM26.7704 22.069C26.7704 22.6779 26.2905 23.1724 25.6996 23.1724H18.2039C17.6129 23.1724 17.1331 22.6779 17.1331 22.069C17.1331 21.46 17.6129 20.9655 18.2039 20.9655H25.6996C26.2905 20.9655 26.7704 21.46 26.7704 22.069Z" fill="black"/>
</g>
<defs>
<clipPath id="clip0_121_167">
<rect width="32" height="32" fill="white"/>
</clipPath>
</defs>
</svg>
